<svg width="24" height="24" viewBox="0 0 24 24" fill="none" xmlns="http://www.w3.org/2000/svg">
<path d="M10.0443 5.21512C10.3184 4.48422 11.0171 4 11.7978 4V4C13.1053 4 14.0103 5.30594 13.5512 6.53019L8.95567 18.7849C8.68158 19.5158 7.98285 20 7.20225 20V20C5.89475 20 4.98973 18.6941 5.44882 17.4698L10.0443 5.21512Z" fill="#98BFFA"/>
<path d="M10.3325 6.49737C9.92292 5.26876 10.8374 4 12.1325 4V4C12.9491 4 13.6742 4.52259 13.9325 5.29737L16.6675 13.5026C17.0771 14.7312 16.1626 16 14.8675 16V16C14.0509 16 13.3258 15.4774 13.0675 14.7026L10.3325 6.49737Z" fill="#98BFFA"/>
<path fill-rule="evenodd" clip-rule="evenodd" d="M15.5 20C17.7091 20 19.5 18.2091 19.5 16C19.5 13.7909 17.7091 12 15.5 12C13.2909 12 11.5 13.7909 11.5 16C11.5 18.2091 13.2909 20 15.5 20ZM14.0607 18.3891C14.2506 18.579 14.5553 18.5842 14.7515 18.4047C14.757 18.3996 14.7625 18.3944 14.7678 18.3891L18.3033 14.8536C18.4986 14.6583 18.4986 14.3417 18.3033 14.1465C18.1081 13.9512 17.7915 13.9512 17.5962 14.1465L14.4142 17.3285L13.3536 16.2678C13.1583 16.0725 12.8417 16.0725 12.6464 16.2678C12.4512 16.4631 12.4512 16.7796 12.6464 16.9749L14.0607 18.3891Z" fill="#408CFF"/>
</svg>
