<svg width="128" height="128" viewBox="0 0 128 128" fill="none" xmlns="http://www.w3.org/2000/svg">
<circle cx="64" cy="64" r="64" fill="#D5D8E3"/>
<path fill-rule="evenodd" clip-rule="evenodd" d="M20.4243 110.874C26.5752 105.438 34.6792 101.177 43.974 98.6336C32.0324 91.7137 24.0001 78.7949 24.0001 64C24.0001 41.9086 41.9087 24 64.0001 24C86.0915 24 104 41.9086 104 64C104 78.7949 95.9678 91.7137 84.0262 98.6336C93.321 101.177 101.425 105.438 107.576 110.874C96.1503 121.501 80.8342 128 64.0001 128C47.166 128 31.8499 121.501 20.4243 110.874Z" fill="white"/>
<rect x="56" y="52" width="4" height="20" rx="2" fill="#D5D8E3"/>
<rect x="68" y="52" width="4" height="20" rx="2" fill="#D5D8E3"/>
</svg>
