<svg width="100" height="100" viewBox="0 0 100 100" fill="none" xmlns="http://www.w3.org/2000/svg">
<path d="M19.646 4.18992C34.9404 -1.73468 51.5413 14.7485 59.3199 29.6887C63.1865 37.1151 46.1889 42.9203 35.8199 42.1887C24.9895 41.4245 22.6391 43.1859 13.3198 29.6887C6.88495 20.3692 9.32004 8.18988 19.646 4.18992Z" fill="#01D864"/>
<rect x="17.646" y="9.38049" width="2" height="8" rx="1" fill="black"/>
<rect x="22.646" y="9.95288" width="2" height="8" rx="1" fill="black"/>
<path d="M3.82315 53.2897C6.01481 45.3869 27.2054 48.6306 27.2054 48.6306C27.2054 48.6306 38.4255 54.6513 33.1308 61.4174C31.0852 64.0316 29.0105 64.8161 25.8323 65.7738C16.371 68.6248 1.52713 61.5687 3.82315 53.2897Z" fill="#01D864"/>
<path d="M27.146 84.3805C38.146 83.3805 54.1458 79.3805 54.1458 79.3805V92.3805C54.1458 92.3805 38.646 98.3805 29.1458 92.3805C24.8534 89.6695 22.09 84.8402 27.146 84.3805Z" fill="#01D864"/>
<path d="M19.3714 43.1219C31.3253 28.1794 66.0246 24.7751 82.8715 41.6221C91.8715 50.6221 98.8235 69.1879 90.8715 79.6221C79.2725 94.8417 72.4111 98.1128 49.3714 94.622C32.8711 92.1221 11.3713 53.1221 19.3714 43.1219Z" fill="#009A47"/>
</svg>
