<svg width="100" height="100" viewBox="0 0 100 100" fill="none" xmlns="http://www.w3.org/2000/svg">
<path d="M23.0854 2.4252C39.0041 -1.52661 50.8435 10 59.2332 32.7162C62.134 40.5704 44.5407 44.1893 34.3464 42.158C23.6984 40.0363 21.1449 41.4877 13.5991 26.9246C8.38887 16.8691 12.338 5.09324 23.0854 2.4252Z" fill="#01D864"/>
<rect x="17.6465" y="9" width="2" height="8" rx="1" fill="black"/>
<rect x="22.6465" y="8.95288" width="2" height="8" rx="1" fill="black"/>
<path d="M5.41726 46.0243C9.78657 39.0841 29.1524 48.2779 29.1524 48.2779C29.1524 48.2779 38.1702 57.2678 31.1552 62.228C28.4449 64.1444 26.2323 64.2999 22.9129 64.3043C13.0314 64.3174 0.839881 53.295 5.41726 46.0243Z" fill="#01D864"/>
<path d="M26.8223 89.4018C37.2535 85.77 51.8101 78.0176 51.8101 78.0176L54.9555 90.6313C54.9555 90.6313 41.368 100.203 30.6983 96.6802C25.8775 95.0884 22.0277 91.0711 26.8223 89.4018Z" fill="#01D864"/>
<path d="M19.3719 43.1219C31.3257 28.1794 66.025 24.7751 82.872 41.6221C91.872 50.6221 98.824 69.1879 90.872 79.6221C79.273 94.8417 72.4116 98.1128 49.3719 94.622C32.8716 92.1221 11.3718 53.1221 19.3719 43.1219Z" fill="#009A47"/>
</svg>
