<svg width="24" height="24" viewBox="0 0 24 24" fill="none" xmlns="http://www.w3.org/2000/svg">
<path fill-rule="evenodd" clip-rule="evenodd" d="M15.5214 5.04165C13.5766 3.09683 10.4234 3.09683 8.47861 5.04165C6.80443 6.71584 6.55096 9.33204 7.72355 11.3889C8.41392 12.5999 9.12421 13.9478 9.60058 15.117C10.1897 16.5628 10.8081 18.4277 11.2696 19.897C11.4873 20.5903 12.5127 20.5903 12.7305 19.897C13.1919 18.4277 13.8104 16.5628 14.3995 15.117C14.8758 13.9478 15.5861 12.5999 16.2765 11.3889C17.4491 9.33204 17.1956 6.71584 15.5214 5.04165ZM10.8003 9.91823C11.4629 10.5808 12.5372 10.5808 13.1997 9.91823C13.8623 9.25565 13.8623 8.18139 13.1997 7.5188C12.5372 6.85622 11.4629 6.85622 10.8003 7.5188C10.1377 8.18139 10.1377 9.25565 10.8003 9.91823Z" fill="#408CFF"/>
</svg>
