<svg width="100" height="100" viewBox="0 0 100 100" fill="none" xmlns="http://www.w3.org/2000/svg">
<path d="M23.0854 2.4252C39.0041 -1.52661 50.8435 10 59.2332 32.7162C62.134 40.5704 44.5407 44.1893 34.3464 42.158C23.6984 40.0363 21.1449 41.4877 13.5991 26.9246C8.38887 16.8691 12.338 5.09324 23.0854 2.4252Z" fill="#FF8FAA"/>
<rect x="17.6465" y="8.99988" width="2" height="8" rx="1" fill="black"/>
<rect x="22.6465" y="8.95276" width="2" height="8" rx="1" fill="black"/>
<path d="M5.41677 46.0242C9.78608 39.084 29.1519 48.2778 29.1519 48.2778C29.1519 48.2778 38.1697 57.2677 31.1547 62.2279C28.4444 64.1443 26.2318 64.2997 22.9124 64.3042C13.0309 64.3173 0.839393 53.2948 5.41677 46.0242Z" fill="#FF8FAA"/>
<path d="M26.8213 89.4018C37.2525 85.77 51.8091 78.0176 51.8091 78.0176L54.9545 90.6313C54.9545 90.6313 41.367 100.203 30.6973 96.6802C25.8766 95.0884 22.0268 91.0711 26.8213 89.4018Z" fill="#FF8FAA"/>
<path d="M19.3719 43.1219C31.3257 28.1794 66.025 24.7751 82.872 41.6221C91.872 50.6221 98.824 69.1879 90.872 79.6221C79.273 94.8417 72.4116 98.1128 49.3719 94.622C32.8716 92.1221 11.3718 53.1221 19.3719 43.1219Z" fill="#FF5E84"/>
</svg>
