<svg width="16" height="16" viewBox="0 0 16 16" fill="none" xmlns="http://www.w3.org/2000/svg">
<path fill-rule="evenodd" clip-rule="evenodd" d="M5 2C4.44775 2 4 2.44775 4 3V4H3.5C3.22388 4 3 4.22388 3 4.5C3 4.77612 3.22388 5 3.5 5H4V6H3.5C3.22388 6 3 6.22388 3 6.5C3 6.77612 3.22388 7 3.5 7H4V13C4 13.5522 4.44775 14 5 14H12C12.5522 14 13 13.5522 13 13V3C13 2.44775 12.5522 2 12 2H5ZM6.5 4C6.22388 4 6 4.22388 6 4.5C6 4.77612 6.22388 5 6.5 5H10.5C10.7761 5 11 4.77612 11 4.5C11 4.22388 10.7761 4 10.5 4H6.5Z" fill="#408CFF"/>
</svg>
