<svg width="100" height="100" viewBox="0 0 100 100" fill="none" xmlns="http://www.w3.org/2000/svg">
<path d="M19.6465 4.18992C34.9409 -1.73468 51.5418 14.7485 59.3204 29.6887C63.187 37.1151 46.1893 42.9203 35.8204 42.1887C24.99 41.4245 22.6396 43.1859 13.3202 29.6887C6.88544 20.3692 9.32053 8.18988 19.6465 4.18992Z" fill="#01D864"/>
<rect x="17.6465" y="9.38049" width="2" height="8" rx="1" fill="black"/>
<rect x="22.6465" y="9.95288" width="2" height="8" rx="1" fill="black"/>
<path d="M9.22035 41.4529C15.8593 36.6382 30.4105 52.3807 30.4105 52.3807C30.4105 52.3807 35.4333 64.0816 27.0759 66.0736C23.847 66.8433 21.7355 66.1639 18.6531 64.9323C9.47696 61.2657 2.26527 46.4969 9.22035 41.4529Z" fill="#01D864"/>
<path d="M26.8218 89.4018C37.253 85.77 51.8096 78.0176 51.8096 78.0176L54.955 90.6313C54.955 90.6313 41.3675 100.203 30.6978 96.6802C25.877 95.0884 22.0273 91.0711 26.8218 89.4018Z" fill="#01D864"/>
<path d="M19.3719 43.1219C31.3257 28.1794 66.025 24.7751 82.872 41.6221C91.872 50.6221 98.824 69.1879 90.872 79.6221C79.273 94.8417 72.4116 98.1128 49.3719 94.622C32.8716 92.1221 11.3718 53.1221 19.3719 43.1219Z" fill="#009A47"/>
</svg>
