<svg width="134" height="49" viewBox="0 0 134 49" fill="none" xmlns="http://www.w3.org/2000/svg">
<g filter="url(#filter0_dii_488_1111)">
<path fill-rule="evenodd" clip-rule="evenodd" d="M67.4541 40C43.6299 39.9081 22.2616 29.4023 7.66455 12.7982C13.8765 9.62592 29.8916 5.0796 43.2691 11.5006C51.7872 15.5892 53.5185 15.398 56.3249 15.088C57.6368 14.9431 59.1838 14.7723 61.7691 15.0006C66.8905 15.4531 71.2517 14.3862 75.6517 13.3098C79.7714 12.302 83.9252 11.2859 88.7691 11.5006C96.3791 11.8381 103.269 15.0006 103.269 15.0006C103.269 15.0006 117.608 13.8591 124.335 16.5719C110.282 30.6238 91.0251 39.4718 69.7033 39.9777C68.9541 39.9905 68.2042 39.998 67.4541 40Z" fill="url(#paint0_linear_488_1111)"/>
</g>
<defs>
<filter id="filter0_dii_488_1111" x="0.664551" y="1.25244" width="132.67" height="47.7476" filterUnits="userSpaceOnUse" color-interpolation-filters="sRGB">
<feFlood flood-opacity="0" result="BackgroundImageFix"/>
<feColorMatrix in="SourceAlpha" type="matrix" values="0 0 0 0 0 0 0 0 0 0 0 0 0 0 0 0 0 0 127 0" result="hardAlpha"/>
<feOffset dx="1" dy="1"/>
<feGaussianBlur stdDeviation="4"/>
<feComposite in2="hardAlpha" operator="out"/>
<feColorMatrix type="matrix" values="0 0 0 0 0 0 0 0 0 0 0 0 0 0 0 0 0 0 0.2 0"/>
<feBlend mode="normal" in2="BackgroundImageFix" result="effect1_dropShadow_488_1111"/>
<feBlend mode="normal" in="SourceGraphic" in2="effect1_dropShadow_488_1111" result="shape"/>
<feColorMatrix in="SourceAlpha" type="matrix" values="0 0 0 0 0 0 0 0 0 0 0 0 0 0 0 0 0 0 127 0" result="hardAlpha"/>
<feOffset dx="1" dy="2"/>
<feGaussianBlur stdDeviation="1"/>
<feComposite in2="hardAlpha" operator="arithmetic" k2="-1" k3="1"/>
<feColorMatrix type="matrix" values="0 0 0 0 1 0 0 0 0 1 0 0 0 0 1 0 0 0 0.25 0"/>
<feBlend mode="normal" in2="shape" result="effect2_innerShadow_488_1111"/>
<feColorMatrix in="SourceAlpha" type="matrix" values="0 0 0 0 0 0 0 0 0 0 0 0 0 0 0 0 0 0 127 0" result="hardAlpha"/>
<feOffset dx="-1" dy="-2"/>
<feGaussianBlur stdDeviation="1"/>
<feComposite in2="hardAlpha" operator="arithmetic" k2="-1" k3="1"/>
<feColorMatrix type="matrix" values="0 0 0 0 0 0 0 0 0 0 0 0 0 0 0 0 0 0 0.1 0"/>
<feBlend mode="normal" in2="effect2_innerShadow_488_1111" result="effect3_innerShadow_488_1111"/>
</filter>
<linearGradient id="paint0_linear_488_1111" x1="65.9998" y1="8.25244" x2="65.9998" y2="40" gradientUnits="userSpaceOnUse">
<stop stop-color="#3AD0FF"/>
<stop offset="1" stop-color="#0075FF"/>
</linearGradient>
</defs>
</svg>
