<svg width="48" height="48" viewBox="0 0 48 48" fill="none" xmlns="http://www.w3.org/2000/svg">
<path fill-rule="evenodd" clip-rule="evenodd" d="M24 48C37.2549 48 48 37.2549 48 24C48 10.7451 37.2549 0 24 0C10.7451 0 0 10.7451 0 24C0 37.2549 10.7451 48 24 48ZM12.6855 15.5142C11.9048 14.7334 11.9048 13.4668 12.6855 12.686C13.4668 11.9048 14.7329 11.9048 15.5142 12.686L23.9995 21.1709L32.4849 12.6855C33.2656 11.9048 34.5322 11.9048 35.313 12.6855C36.0942 13.4668 36.0942 14.7329 35.313 15.5142L26.8276 23.9995L35.313 32.4849C35.5791 32.751 35.7544 33.0732 35.8394 33.4136C36.0034 34.0723 35.8281 34.7983 35.313 35.3135C34.5322 36.0942 33.2656 36.0942 32.4849 35.3135L23.9995 26.8276L15.5142 35.313C14.7329 36.0942 13.4668 36.0942 12.6855 35.313C11.9048 34.5322 11.9048 33.2656 12.6855 32.4849L21.1709 23.9995L12.6855 15.5142Z" fill="white"/>
</svg>
