<svg width="100" height="100" viewBox="0 0 100 100" fill="none" xmlns="http://www.w3.org/2000/svg">
<path d="M18.8539 4.38505C34.1144 -2.24841 50.6785 16.207 58.4399 32.9347C62.2978 41.2496 45.3379 47.7494 34.992 46.9302C24.1855 46.0746 25.7987 49.1121 16.5 34C10.0795 23.5655 8.55084 8.86358 18.8539 4.38505Z" fill="#01D864"/>
<rect x="17.6465" y="9.38049" width="2" height="8" rx="1" fill="black"/>
<rect x="22.6465" y="9.95288" width="2" height="8" rx="1" fill="black"/>
<path d="M8.46047 42.117C14.7761 36.8853 30.3094 51.6596 30.3094 51.6596C30.3094 51.6596 36.0742 63.0133 27.8621 65.5386C24.6894 66.5143 22.5386 65.9721 19.3834 64.9412C9.99049 61.8723 1.8441 47.5977 8.46047 42.117Z" fill="#01D864"/>
<path d="M27.6416 93.3536C37.0839 87.6226 49.6996 77.0001 49.6996 77.0001L55.4109 88.6783C55.4109 88.6783 44.123 100.878 32.9528 99.6615C27.9058 99.112 23.3017 95.9877 27.6416 93.3536Z" fill="#01D864"/>
<path d="M19.3719 43.1219C31.3257 28.1794 66.025 24.7751 82.872 41.6221C91.872 50.6221 98.824 69.1879 90.872 79.6221C79.273 94.8417 72.4116 98.1128 49.3719 94.622C32.8716 92.1221 11.3718 53.1221 19.3719 43.1219Z" fill="#009A47"/>
</svg>
