<svg width="100" height="100" viewBox="0 0 100 100" fill="none" xmlns="http://www.w3.org/2000/svg">
<path d="M23.0854 2.4252C39.0041 -1.52661 50.8435 10 59.2332 32.7162C62.134 40.5704 44.5407 44.1893 34.3464 42.158C23.6984 40.0363 21.1449 41.4877 13.5991 26.9246C8.38887 16.8691 12.338 5.09324 23.0854 2.4252Z" fill="#01D864"/>
<rect x="17.6465" y="9" width="2" height="8" rx="1" fill="black"/>
<rect x="22.6465" y="8.95288" width="2" height="8" rx="1" fill="black"/>
<path d="M5.41726 46.0243C9.78657 39.0841 29.1524 48.2779 29.1524 48.2779C29.1524 48.2779 38.1702 57.2678 31.1552 62.228C28.4449 64.1444 26.2323 64.2999 22.9129 64.3043C13.0314 64.3174 0.839881 53.295 5.41726 46.0243Z" fill="#01D864"/>
<path d="M26.8223 89.4018C37.2535 85.77 51.8101 78.0176 51.8101 78.0176L54.9555 90.6313C54.9555 90.6313 41.368 100.203 30.6983 96.6802C25.8775 95.0884 22.0277 91.0711 26.8223 89.4018Z" fill="#01D864"/>
<path d="M19.3719 43.1219C31.3257 28.1794 66.025 24.7751 82.872 41.6221C91.872 50.6221 98.824 69.1879 90.872 79.6221C79.273 94.8417 72.4116 98.1128 49.3719 94.622C32.8716 92.1221 11.3718 53.1221 19.3719 43.1219Z" fill="#009A47"/>
<path opacity="0.5" fill-rule="evenodd" clip-rule="evenodd" d="M18.6607 56.2457C18.4988 55.6192 18.3551 55.003 18.2305 54.3988C18.3584 54.259 18.4946 54.1447 18.6088 54.0567C18.8454 53.8745 19.1167 53.7088 19.3777 53.5682C19.8819 53.2965 20.4726 53.0525 20.8807 52.9618C21.4935 52.8256 22.0747 52.4536 22.846 51.96L22.8474 51.9591C22.9385 51.9008 23.0322 51.8409 23.129 51.7794C23.8492 51.3216 24.7641 50.7657 25.8294 50.6368C25.8363 50.6229 25.8436 50.6089 25.8512 50.5949C26.246 49.8712 26.503 49.0628 26.7922 48.141L26.8047 48.1009C27.0804 47.2221 27.3894 46.2369 27.8873 45.3218C27.9496 45.2074 28.0122 45.093 28.0748 44.9789C28.61 44.0022 29.1375 43.0395 29.3368 42.1705C27.426 41.9552 25.0422 41.3065 23.483 40.3536C23.1668 40.1605 22.9959 39.8199 23.0046 39.4744C23.3988 39.1498 23.8053 38.8331 24.2234 38.5243C24.3275 38.5477 24.4297 38.5883 24.5259 38.6471C25.9408 39.5117 28.4309 40.1415 30.1923 40.2368C30.3743 40.1322 30.5585 40.0259 30.7449 39.9183L30.7459 39.9177L30.7464 39.9175C32.1086 39.1312 33.5838 38.2797 35.11 37.5952C36.7795 36.8462 38.5762 36.2645 40.4665 36.1652C40.5006 35.8675 40.5787 35.5849 40.6712 35.3314C40.8846 34.7469 41.2295 34.1678 41.5668 33.6541C41.7488 33.3769 41.9731 33.0549 42.1798 32.7582L42.1799 32.7581L42.1801 32.7577L42.1802 32.7576C42.326 32.5483 42.463 32.3516 42.5702 32.1921C42.8816 31.7288 43.0663 31.4042 43.1385 31.1876C43.1494 31.1549 43.1618 31.1231 43.1757 31.0923C43.7288 31.0034 44.2851 30.9225 44.844 30.85C45.0665 31.108 45.1514 31.4733 45.0358 31.8201C44.8681 32.3234 44.5374 32.8505 44.2301 33.3078C44.0693 33.547 43.9228 33.7564 43.7792 33.9615L43.779 33.9618L43.7788 33.9621L43.7787 33.9622L43.7786 33.9624C43.6011 34.216 43.4282 34.4631 43.2386 34.7518C42.9221 35.2339 42.6816 35.6566 42.55 36.0172C42.4152 36.3864 42.446 36.5492 42.468 36.6041C42.4941 36.6694 42.6059 36.8137 42.9794 37.0816C43.0915 37.162 43.17 37.2153 43.2552 37.2733L43.2553 37.2734L43.2556 37.2735L43.2556 37.2736L43.2557 37.2736C43.3325 37.3259 43.4149 37.3819 43.5323 37.4648C43.7229 37.5993 43.9472 37.7663 44.1429 37.962C44.3813 38.2004 44.624 38.5174 44.815 38.7669C44.869 38.8374 44.9189 38.9025 44.9634 38.959C45.2173 39.2811 45.3747 39.4339 45.4808 39.4945C46.0752 39.8342 46.7052 40.2931 47.291 40.7199C47.469 40.8495 47.6429 40.9762 47.8105 41.0957C48.5201 41.6015 49.1508 42.0059 49.7275 42.2272C51.2299 42.1954 52.8161 41.7465 54.4487 41.2843C54.8334 41.1754 55.2206 41.0658 55.61 40.9608C57.4849 40.4548 59.3895 39.963 61.3271 39.5891C61.3345 38.2504 61.3961 35.9116 61.4572 34.1391C61.4897 33.1958 61.5227 32.3957 61.5481 31.9867C61.5543 31.8873 61.561 31.7933 61.5687 31.7226L61.569 31.7199C61.5712 31.6995 61.5801 31.6157 61.603 31.5289C61.6094 31.505 61.6286 31.4339 61.6686 31.3498C61.6809 31.324 61.7024 31.2813 61.7356 31.2308C62.346 31.3414 62.9537 31.463 63.5579 31.5958C63.5742 31.6813 63.5779 31.7559 63.5786 31.7702L63.5787 31.7722C63.5811 31.8127 63.5826 31.8581 63.5837 31.9044C63.5858 31.9983 63.5869 32.1254 63.5869 32.2857C63.5869 32.4164 63.5618 32.5412 63.5162 32.6556C63.4978 33.0621 63.477 33.5995 63.456 34.208C63.4002 35.8246 63.3449 37.8929 63.3301 39.2336C63.5992 39.2994 63.8529 39.4186 64.0987 39.5712C66.0509 40.7829 68.0053 41.7455 70.0622 42.7586C70.5787 43.013 71.1016 43.2706 71.6326 43.5361C72.8224 44.1309 73.941 44.8196 75.018 45.5079C75.2943 45.6845 75.5666 45.8602 75.8366 46.0344L75.8383 46.0355L75.8395 46.0363L75.8395 46.0363C76.317 46.3444 76.7874 46.648 77.2601 46.9437C77.4405 46.7671 77.6873 46.6583 77.9596 46.6583C79.2954 46.6583 80.9334 46.5 82.6385 46.334L82.6773 46.3302C83.9951 46.202 85.3529 46.0698 86.5752 46.0205C87.0178 46.6381 87.4489 47.2765 87.8665 47.9328C87.7543 47.9764 87.6322 48.0003 87.5045 48.0003C86.1732 48.0003 84.5375 48.1586 82.8322 48.3246L82.8012 48.3276C81.4423 48.4599 80.0393 48.5965 78.7843 48.6423C78.7859 48.6897 78.786 48.7344 78.7854 48.775C78.782 49.0417 78.7454 49.3496 78.7055 49.623C78.6645 49.9047 78.6136 50.1916 78.5717 50.4249L78.5664 50.4543C78.5238 50.6913 78.4978 50.8366 78.4893 50.9059C78.0716 54.3409 77.5843 57.7551 77.0061 61.1716L77.0061 61.1716L77.0061 61.1718L77.0041 61.1865C77.0028 61.1975 77.0011 61.2124 76.9993 61.2316C76.9955 61.2706 76.9916 61.3201 76.9874 61.3816C76.9797 61.4932 76.9724 61.6261 76.9638 61.7823L76.9608 61.8372C76.9414 62.1892 76.9162 62.6321 76.8712 63.0704C76.8312 63.4597 76.7718 63.8865 76.6731 64.2645C77.0092 65.0525 77.5761 66.0954 78.2277 67.1533C79.0454 68.4807 79.9226 69.713 80.4982 70.3531C80.8888 70.7875 81.2163 71.2479 81.5073 71.6599L81.5417 71.7085C81.8284 72.1145 82.0803 72.4712 82.3642 72.7999C82.451 72.9004 82.5269 72.9919 82.5926 73.0715L82.6315 73.1187C82.6811 73.1789 82.7215 73.228 82.7606 73.274C82.8596 73.3904 82.9001 73.4263 82.9188 73.4405L82.9199 73.4414C82.9231 73.4441 82.9286 73.4487 82.9594 73.4571C83.0095 73.4707 83.113 73.4893 83.3204 73.4963C86.1498 73.5922 89.2271 74.3763 91.9344 75.066C92.3155 75.1631 92.6892 75.2583 93.0538 75.3495C93.0957 75.36 93.1362 75.3729 93.1754 75.3882C92.9439 76.0224 92.6764 76.6406 92.3711 77.2402C92.0583 77.1616 91.7434 77.0816 91.4271 77.0012C88.8052 76.3348 86.081 75.6424 83.5731 75.5092C83.5661 75.5774 83.5611 75.635 83.5557 75.6974C83.5502 75.7602 83.5443 75.8279 83.5356 75.9162C83.5201 76.0725 83.4976 76.268 83.4534 76.4559C83.3723 76.8004 83.3099 77.1516 83.2415 77.5364L83.2302 77.5999C83.1591 77.9996 83.0807 78.4338 82.9714 78.8711C82.5456 80.5743 81.9838 82.1773 81.1285 83.7611C81.1301 83.7583 81.1264 83.7668 81.1166 83.7891L81.1164 83.7897L81.0787 83.8767C81.0602 83.9196 81.0362 83.9756 81.0062 84.0465L80.9463 84.188L80.8758 84.3548C81.0705 84.4293 81.2406 84.4985 81.399 84.5629L81.4 84.5633L81.4005 84.5636L81.4006 84.5636L81.4007 84.5636C81.688 84.6805 81.9368 84.7817 82.2233 84.8703L82.3351 84.9045L82.4629 84.9432L82.4629 84.9433L82.463 84.9433C82.9638 85.0948 83.5756 85.2799 84.1279 85.556C84.2403 85.6123 84.403 85.7215 84.5059 85.7906L84.5197 85.7998C84.57 85.8336 84.6212 85.8682 84.673 85.9032L84.6734 85.9034C84.7664 85.9662 84.8615 86.0305 84.9583 86.0946C85.0717 86.1698 85.1676 86.2316 85.2403 86.2759C85.2721 86.2839 85.3032 86.2934 85.3336 86.3044C84.851 86.8214 84.371 87.3154 83.8915 87.7869C83.8786 87.7784 83.8658 87.7699 83.8532 87.7616C83.7502 87.6933 83.6404 87.6192 83.5424 87.553L83.4051 87.4605C83.3306 87.4105 83.2825 87.3791 83.255 87.3612L83.2548 87.3611L83.2546 87.3609L83.2543 87.3607C83.2228 87.3401 83.2189 87.3376 83.2334 87.3449C82.846 87.1511 82.4193 87.0211 81.9109 86.8663C81.8208 86.8388 81.7282 86.8106 81.6327 86.7811C81.2771 86.6712 80.8744 86.5088 80.5251 86.368L80.525 86.368C80.3567 86.3002 80.2009 86.2373 80.0686 86.1877C79.976 86.153 79.8869 86.1212 79.801 86.0926C79.7532 86.1156 79.6991 86.1371 79.6389 86.1543C79.0756 86.3152 78.5015 86.3933 78.0001 86.4592L77.9251 86.469C77.4324 86.5337 77.0086 86.5893 76.6046 86.6903C74.9465 87.1048 73.3069 87.5746 71.7685 88.1996L71.7643 88.2018L71.738 88.2155L71.7029 88.2345C71.6849 88.2443 71.6666 88.2544 71.6474 88.265C71.6266 88.2766 71.6047 88.2888 71.5808 88.3022L71.58 88.3026L71.4788 88.359C71.3455 88.433 71.177 88.5249 70.9948 88.6134C70.8759 89.0774 70.6821 89.5159 70.4979 89.8894C70.3689 90.1511 70.2311 90.4065 70.1077 90.6354L70.1076 90.6355L70.1025 90.6451C69.9739 90.8837 69.8635 91.0888 69.7728 91.2761C69.557 91.7217 69.3025 92.1462 69.0745 92.5263L68.9879 92.6709C68.7294 93.1039 68.5086 93.4878 68.3414 93.8831C68.2641 94.0656 68.2173 94.2721 68.1441 94.5942L68.1441 94.5943L68.1385 94.6191C68.0744 94.9014 67.9856 95.2904 67.8084 95.6659C67.234 95.7289 66.6454 95.7787 66.0412 95.8156C65.8592 95.5291 65.8276 95.157 65.9905 94.8313C66.0648 94.6827 66.1163 94.4926 66.1881 94.1763L66.2044 94.104C66.2658 93.8309 66.3497 93.4578 66.4995 93.1038C66.726 92.5684 67.0116 92.0795 67.2709 91.6454L67.3588 91.4984C67.592 91.1089 67.7984 90.7643 67.9728 90.4042C68.0847 90.1733 68.2152 89.9313 68.3377 89.7041L68.3421 89.696C68.4697 89.4592 68.592 89.2322 68.7041 89.0049C68.7583 88.895 68.8073 88.7903 68.851 88.6908C68.752 88.6135 68.6583 88.5162 68.575 88.3945C68.3529 88.0699 68.0053 87.7374 67.5577 87.3652C67.4157 87.2472 67.2511 87.1156 67.0796 86.9784C66.7739 86.7341 66.446 86.472 66.1843 86.237C65.5019 85.624 64.8125 85.0121 64.121 84.3982L64.1209 84.3981L64.1207 84.398C62.5563 83.0093 60.9808 81.6107 59.4487 80.168C59.3039 80.0317 59.151 79.9011 58.9755 79.7512L58.9751 79.7509L58.9751 79.7509L58.9751 79.7508C58.8791 79.6688 58.7763 79.5811 58.6644 79.4834C58.4512 79.2973 58.2143 79.0828 57.9973 78.8484C57.8987 78.8809 57.7934 78.8984 57.684 78.8984C57.006 78.8984 56.3591 79.0505 55.5468 79.2444C55.1555 79.3377 54.7806 79.4164 54.4203 79.4919L54.4203 79.4919C53.4902 79.6869 52.6574 79.8616 51.8892 80.2176C51.08 80.5926 50.2091 81.1341 49.363 81.6603L49.2152 81.7522L49.2099 81.7639C49.1728 81.8495 49.1334 81.9855 49.0945 82.1831C49.0632 82.3425 49.0391 82.5035 49.0128 82.6798L49.0127 82.68L49.0127 82.6801L48.9937 82.8065C48.9636 83.0048 48.9228 83.2667 48.8551 83.4886C48.3391 85.1798 47.584 86.7812 46.8553 88.3051L46.7559 88.5129C46.0526 89.9826 45.3837 91.3804 44.9039 92.8197C44.872 92.9155 44.8269 93.0033 44.7714 93.0817C44.1936 92.7914 43.6136 92.4663 43.0328 92.109C43.5511 90.5755 44.2575 89.0999 44.9353 87.6841L45.051 87.4422C45.7855 85.9064 46.4761 84.4326 46.9421 82.905C46.9602 82.8457 46.9826 82.7288 47.0164 82.5064L47.0322 82.401L47.0322 82.4008L47.0322 82.4007L47.0323 82.4C47.0432 82.3272 47.055 82.248 47.068 82.1655C46.8075 82.0772 46.5105 81.9507 46.2074 81.8106C45.4664 81.468 44.5243 80.9663 43.6125 80.4596C42.6957 79.9501 41.7896 79.4243 41.1139 79.0267C40.7758 78.8277 40.4946 78.6604 40.2977 78.5426C40.2702 78.5262 40.2444 78.5107 40.2202 78.4963C40.1579 78.4589 40.1071 78.4284 40.0689 78.4054L40.0082 78.3688L39.9924 78.3593L39.9883 78.3568L39.9872 78.3562L39.9869 78.356C39.9868 78.3559 39.9868 78.3559 40.5045 77.5004L39.9296 78.3186L39.9294 78.3184L39.9287 78.3179L39.9259 78.316L39.915 78.3083L39.8724 78.2784L39.7111 78.1648C39.5719 78.0667 39.3727 77.9262 39.1322 77.7562C38.6514 77.4163 38.0051 76.958 37.3441 76.4851C36.6839 76.0127 36.006 75.5237 35.4629 75.1228C35.1918 74.9227 34.9504 74.7416 34.76 74.5942C34.7276 74.5691 34.6947 74.5436 34.6621 74.5179C34.4942 74.522 34.399 74.5378 34.3272 74.5588C34.2493 74.5815 34.1475 74.6253 33.9786 74.7454C33.8309 74.8505 33.6826 74.9577 33.533 75.0658L33.5327 75.066L33.5296 75.0683L33.5294 75.0684L33.5293 75.0685C32.5094 75.8057 31.427 76.5881 30.0367 77.0736C29.7396 77.1774 29.3549 77.2443 29.0344 77.2978C28.9566 77.3108 28.8792 77.3234 28.8022 77.336L28.8019 77.3361L28.8017 77.3361C28.7766 77.3402 28.7515 77.3443 28.7264 77.3484C28.3175 76.7506 27.9158 76.1456 27.5221 75.5348C27.5414 75.5307 27.5606 75.5267 27.5797 75.5227C27.8938 75.4578 28.2198 75.4046 28.501 75.3586L28.5011 75.3586C28.5724 75.347 28.6408 75.3358 28.7054 75.325C29.0621 75.2655 29.2711 75.2225 29.3773 75.1854C30.4736 74.8026 31.3067 74.203 32.3412 73.4584L32.3421 73.4578C32.4961 73.3469 32.6546 73.2329 32.8191 73.1159C33.1188 72.9026 33.4216 72.7395 33.7676 72.6386C33.9015 72.5996 34.0333 72.5725 34.1635 72.5539C34.344 71.7475 34.6305 70.7993 34.9241 69.9034C35.3234 68.6848 35.764 67.4806 36.0473 66.7062L36.0475 66.7057L36.0476 66.7055L36.0654 66.6568C36.2977 66.0219 36.4987 65.2991 36.7172 64.5136C36.7926 64.2424 36.8701 63.9639 36.9516 63.6788C37.1609 62.9473 37.396 62.1795 37.6865 61.4654C37.6079 61.4107 37.5368 61.3582 37.4737 61.3114L37.4008 61.2572C37.1647 61.0816 37.029 60.9808 36.8816 60.9109C36.2204 60.5977 35.6302 60.1549 35.1172 59.7406C34.9357 59.594 34.7678 59.4546 34.6075 59.3216L34.6073 59.3214C34.2843 59.0531 33.9923 58.8107 33.682 58.5869C31.7638 57.2033 29.8754 55.7164 28.091 54.155C28.0717 54.1381 28.0455 54.1155 28.0135 54.0878L28.0115 54.0861L28.011 54.0856C27.7845 53.8896 27.2721 53.4463 26.8171 52.9904C26.6933 52.8664 26.5652 52.7331 26.4432 52.5964C26.3909 52.6048 26.3372 52.6092 26.2824 52.6092C25.6736 52.6092 25.0557 52.9245 24.2018 53.4673C24.1134 53.5234 24.0216 53.5828 23.9266 53.6442L23.9261 53.6445C23.2063 54.1099 22.3017 54.6948 21.3146 54.9141C21.1553 54.9495 20.746 55.1028 20.3262 55.3289C20.1252 55.4373 19.9534 55.5456 19.8294 55.6411C19.7539 55.6992 19.7193 55.735 19.7084 55.7463L19.7074 55.7473C19.4965 56.1263 19.0711 56.318 18.6607 56.2457ZM40.5045 77.5004L39.9297 78.3186L39.9576 78.3382L39.9868 78.3559L40.5045 77.5004ZM47.8726 80.2578C47.9367 80.2012 48.0074 80.148 48.0852 80.0996L48.3212 79.9529L48.3212 79.9529L48.3213 79.9528C49.1449 79.4401 50.1208 78.8328 51.0482 78.4029C52.0424 77.9423 53.2101 77.6982 54.2041 77.4905C54.5179 77.4249 54.8144 77.363 55.0826 77.299L55.1516 77.2825C55.9061 77.1022 56.7592 76.8984 57.684 76.8984C57.7183 76.8984 57.7522 76.9002 57.7856 76.9035C57.8624 76.7217 57.95 76.5353 58.0345 76.3618C58.1387 76.148 58.2512 75.928 58.3497 75.7352L58.3498 75.735L58.4335 75.571C58.4927 75.4547 58.5423 75.3557 58.5813 75.2744C58.6006 75.2341 58.6156 75.2016 58.6268 75.1762L58.6363 75.1543L58.641 75.1428L58.6426 75.1387L58.6427 75.1387C58.9504 74.2923 59.1061 73.4287 59.2779 72.4758C59.3399 72.1319 59.4041 71.7764 59.4782 71.4058C59.6216 70.6889 59.8218 69.9711 60.0104 69.2952L60.0105 69.295C60.0507 69.1508 60.0904 69.0085 60.1289 68.8685C60.322 68.1666 60.4905 67.5053 60.5904 66.8562C60.3753 66.6761 60.1803 66.4779 60.0031 66.2946C59.9619 66.252 59.921 66.2095 59.8801 66.167C59.6815 65.9605 59.4821 65.7532 59.2413 65.5283C57.8283 64.2096 56.2876 63.0361 54.7007 61.8275L54.7006 61.8275L54.7006 61.8274L54.7006 61.8274L54.7005 61.8274L54.7004 61.8273L54.5853 61.7396C52.9718 60.5106 51.314 59.2417 49.7949 57.7906C49.7173 57.7165 49.6421 57.6395 49.5709 57.559C47.4471 58.2857 42.0357 60.6591 39.7431 61.7542C39.414 62.4437 39.1418 63.2946 38.8745 64.229C38.8041 64.475 38.7336 64.7285 38.6624 64.9848L38.6623 64.985L38.6623 64.985C38.4379 65.7922 38.2058 66.6273 37.9437 67.3439L37.9283 67.3858C37.6443 68.1622 37.2133 69.3401 36.8246 70.5263C36.5105 71.4848 36.241 72.3988 36.0919 73.0955C36.2477 73.2144 36.4368 73.3558 36.6507 73.5137C37.1818 73.9057 37.8503 74.3881 38.5079 74.8585C39.1648 75.3285 39.8077 75.7845 40.2867 76.1231C40.5262 76.2924 40.7245 76.4322 40.8629 76.5297L41.0231 76.6425L41.0511 76.6622L41.1002 76.6918C41.1516 76.7228 41.2274 76.7683 41.3242 76.8261C41.5177 76.9418 41.7948 77.1068 42.1283 77.303C42.796 77.696 43.6868 78.2128 44.584 78.7114C45.4863 79.2128 46.3755 79.6849 47.0466 79.9952C47.3423 80.1318 47.5665 80.2234 47.7178 80.274C47.7687 80.2646 47.8205 80.2592 47.8726 80.2578ZM49.1272 55.6023C49.1396 55.5502 49.1519 55.5011 49.1628 55.4574L49.1628 55.4574C49.1717 55.4217 49.1798 55.3895 49.1863 55.3622C49.2288 55.1841 49.2673 54.9948 49.2862 54.7585C49.366 53.7611 49.3569 52.7685 49.3473 51.7282C49.3441 51.3812 49.3409 51.0289 49.3409 50.6694V50.6548V50.6403V50.6258V50.6112V50.5967V50.5822V50.5676V50.5531V50.5386V50.524V50.5095V50.495V50.4804V50.4659V50.4514V50.4368V50.4223V50.4078V50.3932V50.3787V50.3642V50.3497V50.3351V50.3206V50.3061V50.2915V50.277V50.2625V50.2479V50.2334V50.2189V50.2043V50.1898V50.1753V50.1607V50.1462V50.1317V50.1171V50.1026V50.0881V50.0735V50.059V50.0445V50.03V50.0154V50.0009V49.9864V49.9718V49.9573V49.9428V49.9282V49.9137V49.8992V49.8846V49.8701V49.8556V49.841V49.8265V49.812V49.7974V49.7829V49.7684V49.7538V49.7393V49.7248V49.7102V49.6957V49.6812V49.6667V49.6521V49.6376V49.6231V49.6085V49.594V49.5795V49.5649V49.5504V49.5359V49.5213V49.5068V49.4923V49.4777V49.4632V49.4487V49.4341V49.4196V49.4051V49.3905V49.376V49.3615V49.347V49.3324V49.3179V49.3034V49.2888V49.2743V49.2598V49.2452V49.2307V49.2162V49.2016V49.1871V49.1726V49.158V49.1435V49.129V49.1144V49.0999V49.0854V49.0708V49.0563V49.0418V49.0273V49.0127V48.9982V48.9837V48.9691V48.9546V48.9401V48.9255V48.911V48.8965V48.8819V48.8674V48.8529V48.8383V48.8238V48.8093V48.7947V48.7802V48.7657V48.7511V48.7366V48.7221V48.7076V48.693V48.6785V48.664V48.6494V48.6349V48.6204V48.6058V48.5913V48.5768V48.5622V48.5477V48.5332V48.5186V48.5041V48.4896V48.475V48.4605V48.446V48.4314V48.4169V48.4024V48.3878V48.3733V48.3588V48.3443V48.3297V48.3152V48.3007V48.2861V48.2716V48.2571V48.2425V48.228V48.2135V48.1989V48.1844V48.1699V48.1553V48.1408V48.1263V48.1117V48.0972V48.0827V48.0681V48.0536V48.0391V48.0245V48.01V47.9955V47.981V47.9664V47.9519V47.9374V47.9228V47.9083V47.8938V47.8792V47.8647V47.8502V47.8356V47.8211V47.8066V47.792V47.7775V47.763V47.7484V47.7339V47.7194V47.7048V47.6903V47.6758V47.6613V47.6467V47.6322V47.6177V47.6031V47.5886V47.5741V47.5595V47.545V47.5305V47.5159V47.5014V47.4869V47.4723V47.4578V47.4433V47.4287V47.4142V47.3997V47.3851V47.3706V47.3561V47.3416V47.327V47.3125V47.298V47.2834V47.2689V47.2544V47.2398V47.2253V47.2108V47.1962V47.1817V47.1672V47.1526V47.1381V47.1236V47.109V47.0945V47.08V47.0654V47.0509V47.0364V47.0218V47.0073V46.9928V46.9783V46.9637V46.9492V46.9347V46.9201V46.9056V46.8911V46.8765V46.862V46.8475V46.8329V46.8184V46.8039V46.7893V46.7748V46.7603V46.7457V46.7312V46.7167V46.7021V46.6876V46.6731V46.6586V46.644V46.6295V46.615V46.6004V46.5859V46.5714V46.5568V46.5423V46.5278V46.5132V46.4987V46.4842V46.4696V46.4551V46.4406V46.426V46.4115V46.397V46.3824V46.3679V46.3534V46.3389V46.3243V46.3098V46.2953V46.2807V46.2662V46.2517V46.2371V46.2226V46.2081V46.1935V46.179V46.1645V46.1499V46.1354V46.1209V46.1063V46.0918V46.0773V46.0627V46.0482V46.0337V46.0191V46.0046V45.9901V45.9756V45.961V45.9465V45.932V45.9174V45.9029V45.8884V45.8738V45.8593V45.8448V45.8302V45.8157V45.8012V45.7866V45.7721V45.7576V45.743V45.7285V45.714V45.6994V45.6849V45.6704V45.6559V45.6413V45.6268V45.6123V45.5977V45.5832V45.5687V45.5541V45.5396V45.5251V45.5105V45.496V45.4815V45.4669V45.4524V45.4379V45.4233V45.4088V45.3943V45.3797V45.3652V45.3507V45.3361V45.3216V45.3071V45.2926V45.278V45.2635V45.249V45.2344V45.2199V45.2054V45.1908V45.1763V45.1618V45.1472V45.1327V45.1182V45.1036V45.0891V45.0746V45.06V45.0455V45.031V45.0164V45.0019V44.9874V44.9729V44.9583V44.9438V44.9293V44.9147V44.9002V44.8857V44.8711V44.8566V44.8421V44.8275V44.813V44.7985V44.7839V44.7694V44.7549V44.7403V44.7258V44.7113V44.6967V44.6822V44.6677V44.6532V44.6386V44.6241V44.6096V44.595V44.5805V44.566V44.5514V44.5369V44.5224V44.5078V44.4933V44.4788V44.4642V44.4497V44.4352V44.4206V44.4061V44.3916V44.377V44.3625V44.348V44.3334V44.3189V44.3044V44.2899V44.2753V44.2608V44.2463V44.2317V44.2172V44.2051C49.2987 44.1957 49.2575 44.1837 49.2176 44.1691C48.2976 43.8572 47.4142 43.2693 46.6495 42.7242C46.4383 42.5736 46.2365 42.4268 46.0421 42.2853L46.0412 42.2846L46.0409 42.2844L46.0409 42.2844C45.4785 41.8751 44.978 41.5107 44.4885 41.231C44.0085 40.9567 43.6415 40.5128 43.3926 40.1969C43.3037 40.0841 43.2263 39.9832 43.1564 39.8922L43.1564 39.8921C42.9898 39.675 42.8657 39.5132 42.7287 39.3763C42.6581 39.3057 42.5485 39.2184 42.3788 39.0986C42.3338 39.0668 42.2594 39.0157 42.1762 38.9586C42.0521 38.8733 41.9084 38.7747 41.8137 38.7067C41.6209 38.5685 41.3734 38.3834 41.1433 38.1444C41.1074 38.1483 41.0709 38.1503 41.034 38.1503C39.3263 38.1503 37.6294 38.657 35.9285 39.42C34.5041 40.0589 33.133 40.8499 31.7707 41.6357L31.77 41.6362C31.6266 41.7188 31.4834 41.8015 31.3402 41.8839L31.3403 41.8879L31.3403 41.888L31.3404 41.8881C31.3418 41.9214 31.3433 41.9578 31.3448 42C31.3467 42.0524 31.3485 42.1175 31.3475 42.1825C31.3466 42.2377 31.3435 42.3429 31.3204 42.4581C31.076 43.6801 30.3633 44.9724 29.8314 45.9366C29.7658 46.0555 29.703 46.1695 29.6441 46.2777C29.2474 47.0067 28.9895 47.8182 28.7005 48.7397L28.6877 48.7804C28.4542 49.5249 28.197 50.3449 27.8214 51.1322C27.9249 51.2579 28.0649 51.4095 28.2327 51.5776C28.6295 51.9752 29.0764 52.3624 29.3119 52.5664L29.3119 52.5664C29.3498 52.5992 29.3822 52.6273 29.408 52.6499C31.1405 54.1658 32.9792 55.614 34.852 56.9648C35.2182 57.229 35.5985 57.5445 35.9496 57.8357L35.9498 57.8359C36.0974 57.9583 36.2398 58.0764 36.3738 58.1847C36.8614 58.5784 37.3003 58.8962 37.7378 59.1034C38.0784 59.2648 38.3817 59.4924 38.5902 59.6489L38.5909 59.6494C38.6173 59.6693 38.6423 59.688 38.6656 59.7053C38.789 59.7968 38.8838 59.863 38.9622 59.911C41.3735 58.7643 46.9039 56.3393 49.0428 55.6264C49.0708 55.617 49.099 55.609 49.1272 55.6023ZM78.861 83.9088L78.8915 83.9089L78.8957 83.8992C78.9669 83.7341 79.0373 83.5675 79.1017 83.4151L79.1019 83.4147L79.1647 83.2662L79.1725 83.2478L79.1726 83.2476L79.1726 83.2474L79.1727 83.2473C79.2367 83.0961 79.3172 82.9062 79.3687 82.8108C80.1262 81.4081 80.6352 79.9697 81.0311 78.3861C81.1215 78.0242 81.1893 77.6533 81.2611 77.2497L81.2748 77.1727C81.3409 76.8006 81.4123 76.3982 81.5065 75.9978C81.5299 75.8986 81.5389 75.7941 81.5532 75.6287C81.5619 75.5282 81.5726 75.4054 81.5895 75.2476C81.598 75.1691 81.6087 75.0732 81.6255 74.9664C81.4673 74.8337 81.3398 74.6906 81.2366 74.5691C81.1648 74.4847 81.1159 74.425 81.0682 74.3667L81.0679 74.3663L81.0678 74.3662C81.0079 74.293 80.9498 74.222 80.8506 74.1071C80.5008 73.7022 80.1972 73.272 79.9247 72.8859L79.9246 72.8858L79.9246 72.8858L79.9245 72.8857L79.9245 72.8857L79.9245 72.8856L79.8738 72.8139C79.5783 72.3955 79.3128 72.026 79.0109 71.6903C78.317 70.9184 77.3663 69.5683 76.5248 68.2022C76.0381 67.412 75.5626 66.5758 75.184 65.8073C74.3735 66.058 73.4981 66.1849 72.6833 66.2744C72.3018 66.3162 71.9416 66.3495 71.598 66.3813L71.5976 66.3813C71.0083 66.4357 70.4675 66.4857 69.9509 66.5669C68.824 66.7439 67.6958 66.8973 66.5792 67.0489L66.5212 67.0567C65.4209 67.206 64.3319 67.3537 63.2474 67.5225C62.9867 67.563 62.7366 67.5835 62.4951 67.5797C62.3768 68.2079 62.2171 68.8181 62.0573 69.399C62.0147 69.554 61.9722 69.7064 61.9303 69.8566L61.9299 69.8581C61.7424 70.5309 61.5667 71.1614 61.4393 71.7981C61.3823 72.0833 61.328 72.385 61.2719 72.6973L61.2719 72.6974C61.0926 73.6948 60.8938 74.8003 60.5222 75.8221C60.4555 76.0056 60.3246 76.2646 60.2162 76.4776L60.1246 76.6572C60.0275 76.847 59.9274 77.043 59.8324 77.2379C59.7544 77.398 59.6878 77.5414 59.6357 77.6635C59.7369 77.7612 59.8518 77.8651 59.9795 77.9765C60.0544 78.0419 60.1377 78.1132 60.2246 78.1875L60.225 78.1879L60.2252 78.188L60.2252 78.188C60.4235 78.3576 60.6404 78.5432 60.8197 78.712C62.3299 80.134 63.869 81.5002 65.4226 82.8792C66.1195 83.4978 66.8193 84.119 67.5207 84.749C67.7508 84.9557 67.9849 85.142 68.2472 85.3507L68.2472 85.3508L68.2477 85.3511C68.428 85.4947 68.6216 85.6488 68.8365 85.8274C69.2039 86.133 69.6031 86.4883 69.9439 86.8951C69.9619 86.8875 69.9807 86.8794 70.0001 86.8708C70.1651 86.7974 70.3392 86.7041 70.5083 86.6102L70.5916 86.5638C70.6453 86.5338 70.6999 86.5034 70.7451 86.4787C70.806 86.4455 70.9064 86.3912 71.0032 86.3518C72.6729 85.6724 74.4214 85.1746 76.1195 84.75C76.6394 84.6201 77.1708 84.5506 77.636 84.4898L77.7395 84.4763C77.7874 84.47 77.8347 84.4637 77.8814 84.4574C77.9129 84.4532 77.9441 84.4489 77.975 84.4447C78.1422 84.1261 78.4762 83.9088 78.861 83.9088ZM74.5073 63.9226C74.5273 63.6677 74.6449 63.4292 74.834 63.2582C74.8515 63.1366 74.8674 63.0053 74.8817 62.8661C74.9213 62.4806 74.9443 62.0812 74.9638 61.7272L74.9687 61.6389C74.9844 61.3491 75.0017 61.0297 75.0342 60.8379C75.6066 57.4553 76.0895 54.0721 76.504 50.6644C76.5197 50.535 76.5559 50.3337 76.5907 50.1408L76.5907 50.1407L76.5908 50.1404L76.5908 50.14L76.6032 50.0715C76.6451 49.8377 76.6907 49.5801 76.7264 49.3347C76.7452 49.2059 76.7597 49.0904 76.7697 48.9909C76.0785 48.571 75.3973 48.1314 74.7294 47.7003L74.7293 47.7003L74.7293 47.7003L74.7293 47.7002L74.7292 47.7002L74.7292 47.7002L74.7291 47.7002L74.7291 47.7001L74.7291 47.7001L74.729 47.7001L74.729 47.7001L74.729 47.7001L74.7289 47.7L74.7264 47.6984C74.4625 47.5281 74.2006 47.3591 73.941 47.1931C72.8774 46.5134 71.8306 45.8711 70.7382 45.3249C70.2313 45.0714 69.7243 44.8218 69.2174 44.5723C67.1511 43.5549 65.0876 42.5389 63.044 41.2704C62.9436 41.2081 62.8867 41.1861 62.864 41.1789L62.8498 41.1828C62.7969 41.1982 62.7561 41.2149 62.6762 41.2474C62.6298 41.2663 62.5703 41.2906 62.4876 41.3231C62.295 41.3987 62.0458 41.4875 61.7337 41.5476C59.8621 41.9075 58.0068 42.3855 56.131 42.8917C55.8022 42.9804 55.4572 43.0787 55.0997 43.1805C53.9359 43.5121 52.6397 43.8813 51.3409 44.0811V44.0864V44.1009V44.1155V44.13V44.1445V44.1591V44.1736V44.1881V44.2027V44.2172V44.2317V44.2463V44.2608V44.2753V44.2899V44.3044V44.3189V44.3334V44.348V44.3625V44.377V44.3916V44.4061V44.4206V44.4352V44.4497V44.4642V44.4788V44.4933V44.5078V44.5224V44.5369V44.5514V44.566V44.5805V44.595V44.6096V44.6241V44.6386V44.6532V44.6677V44.6822V44.6967V44.7113V44.7258V44.7403V44.7549V44.7694V44.7839V44.7985V44.813V44.8275V44.8421V44.8566V44.8711V44.8857V44.9002V44.9147V44.9293V44.9438V44.9583V44.9729V44.9874V45.0019V45.0164V45.031V45.0455V45.06V45.0746V45.0891V45.1036V45.1182V45.1327V45.1472V45.1618V45.1763V45.1908V45.2054V45.2199V45.2344V45.249V45.2635V45.278V45.2926V45.3071V45.3216V45.3361V45.3507V45.3652V45.3797V45.3943V45.4088V45.4233V45.4379V45.4524V45.4669V45.4815V45.496V45.5105V45.5251V45.5396V45.5541V45.5687V45.5832V45.5977V45.6123V45.6268V45.6413V45.6559V45.6704V45.6849V45.6994V45.714V45.7285V45.743V45.7576V45.7721V45.7866V45.8012V45.8157V45.8302V45.8448V45.8593V45.8738V45.8884V45.9029V45.9174V45.932V45.9465V45.961V45.9756V45.9901V46.0046V46.0191V46.0337V46.0482V46.0627V46.0773V46.0918V46.1063V46.1209V46.1354V46.1499V46.1645V46.179V46.1935V46.2081V46.2226V46.2371V46.2517V46.2662V46.2807V46.2953V46.3098V46.3243V46.3389V46.3534V46.3679V46.3824V46.397V46.4115V46.426V46.4406V46.4551V46.4696V46.4842V46.4987V46.5132V46.5278V46.5423V46.5568V46.5714V46.5859V46.6004V46.615V46.6295V46.644V46.6586V46.6731V46.6876V46.7021V46.7167V46.7312V46.7457V46.7603V46.7748V46.7893V46.8039V46.8184V46.8329V46.8475V46.862V46.8765V46.8911V46.9056V46.9201V46.9347V46.9492V46.9637V46.9783V46.9928V47.0073V47.0218V47.0364V47.0509V47.0654V47.08V47.0945V47.109V47.1236V47.1381V47.1526V47.1672V47.1817V47.1962V47.2108V47.2253V47.2398V47.2544V47.2689V47.2834V47.298V47.3125V47.327V47.3416V47.3561V47.3706V47.3851V47.3997V47.4142V47.4287V47.4433V47.4578V47.4723V47.4869V47.5014V47.5159V47.5305V47.545V47.5595V47.5741V47.5886V47.6031V47.6177V47.6322V47.6467V47.6613V47.6758V47.6903V47.7048V47.7194V47.7339V47.7484V47.763V47.7775V47.792V47.8066V47.8211V47.8356V47.8502V47.8647V47.8792V47.8938V47.9083V47.9228V47.9374V47.9519V47.9664V47.981V47.9955V48.01V48.0245V48.0391V48.0536V48.0681V48.0827V48.0972V48.1117V48.1263V48.1408V48.1553V48.1699V48.1844V48.1989V48.2135V48.228V48.2425V48.2571V48.2716V48.2861V48.3007V48.3152V48.3297V48.3443V48.3588V48.3733V48.3878V48.4024V48.4169V48.4314V48.446V48.4605V48.475V48.4896V48.5041V48.5186V48.5332V48.5477V48.5622V48.5768V48.5913V48.6058V48.6204V48.6349V48.6494V48.664V48.6785V48.693V48.7076V48.7221V48.7366V48.7511V48.7657V48.7802V48.7947V48.8093V48.8238V48.8383V48.8529V48.8674V48.8819V48.8965V48.911V48.9255V48.9401V48.9546V48.9691V48.9837V48.9982V49.0127V49.0273V49.0418V49.0563V49.0708V49.0854V49.0999V49.1144V49.129V49.1435V49.158V49.1726V49.1871V49.2016V49.2162V49.2307V49.2452V49.2598V49.2743V49.2888V49.3034V49.3179V49.3324V49.347V49.3615V49.376V49.3905V49.4051V49.4196V49.4341V49.4487V49.4632V49.4777V49.4923V49.5068V49.5213V49.5359V49.5504V49.5649V49.5795V49.594V49.6085V49.6231V49.6376V49.6521V49.6667V49.6812V49.6957V49.7102V49.7248V49.7393V49.7538V49.7684V49.7829V49.7974V49.812V49.8265V49.841V49.8556V49.8701V49.8846V49.8992V49.9137V49.9282V49.9428V49.9573V49.9718V49.9864V50.0009V50.0154V50.03V50.0445V50.059V50.0735V50.0881V50.1026V50.1171V50.1317V50.1462V50.1607V50.1753V50.1898V50.2043V50.2189V50.2334V50.2479V50.2625V50.277V50.2915V50.3061V50.3206V50.3351V50.3497V50.3642V50.3787V50.3932V50.4078V50.4223V50.4368V50.4514V50.4659V50.4804V50.495V50.5095V50.524V50.5386V50.5531V50.5676V50.5822V50.5967V50.6112V50.6258V50.6403V50.6548V50.6694C51.3409 50.987 51.3439 51.3126 51.347 51.6436C51.3569 52.7051 51.3674 53.8232 51.2798 54.918C51.2497 55.2943 51.1874 55.5929 51.1317 55.8263C51.1098 55.9181 51.0928 55.9865 51.0795 56.0401L51.0794 56.0404C51.0607 56.1158 51.0493 56.1617 51.0419 56.2017C51.0659 56.2315 51.1074 56.2784 51.1764 56.3443C52.6027 57.7068 54.1734 58.9117 55.7972 60.1486L55.9431 60.2597L55.9432 60.2598C57.5074 61.451 59.1184 62.6779 60.6059 64.0662C60.8898 64.3312 61.1313 64.5824 61.3305 64.7897L61.3306 64.7898L61.3306 64.7899C61.3527 64.8128 61.3743 64.8353 61.3953 64.8571C61.4108 64.8732 61.426 64.889 61.441 64.9045C61.6724 65.1438 61.8254 65.2916 61.9665 65.3956C62.0906 65.487 62.1905 65.5325 62.3032 65.5568C62.4257 65.5833 62.6186 65.5962 62.94 65.5462C64.044 65.3745 65.1495 65.2245 66.244 65.076L66.3103 65.067C67.4297 64.9151 68.5376 64.7644 69.6406 64.5911C70.2133 64.5011 70.8722 64.4397 71.5099 64.3803H71.5099C71.8389 64.3497 72.1622 64.3195 72.4651 64.2863C73.224 64.203 73.9151 64.0964 74.5073 63.9226ZM63.5569 31.9397C63.5584 31.9264 63.5585 31.9289 63.5567 31.9417L63.5569 31.9397ZM61.5823 31.8915C61.5807 31.8747 61.5811 31.8711 61.5821 31.888L61.5823 31.8915ZM49.2346 81.7153C49.2346 81.7154 49.2338 81.7168 49.2319 81.7194C49.2336 81.7165 49.2346 81.7152 49.2346 81.7153Z" fill="white"/>
</svg>
