<svg width="100" height="100" viewBox="0 0 100 100" fill="none" xmlns="http://www.w3.org/2000/svg">
<path d="M18.8539 4.38505C34.1144 -2.24841 50.6785 16.207 58.4399 32.9347C62.2978 41.2496 45.3379 47.7494 34.992 46.9302C24.1855 46.0746 25.7987 49.1121 16.5 34C10.0795 23.5655 8.55084 8.86358 18.8539 4.38505Z" fill="#01D864"/>
<rect x="17.6465" y="9.38049" width="2" height="8" rx="1" fill="black"/>
<rect x="22.6465" y="9.95288" width="2" height="8" rx="1" fill="black"/>
<path d="M8.46047 42.117C14.7761 36.8853 30.3094 51.6596 30.3094 51.6596C30.3094 51.6596 36.0742 63.0133 27.8621 65.5386C24.6894 66.5143 22.5386 65.9721 19.3834 64.9412C9.99049 61.8723 1.8441 47.5977 8.46047 42.117Z" fill="#01D864"/>
<path d="M27.6416 93.3536C37.0839 87.6226 49.6996 77.0001 49.6996 77.0001L55.4109 88.6783C55.4109 88.6783 44.123 100.878 32.9528 99.6615C27.9058 99.112 23.3017 95.9877 27.6416 93.3536Z" fill="#01D864"/>
<path d="M19.3719 43.1219C31.3257 28.1794 66.025 24.7751 82.872 41.6221C91.872 50.6221 98.824 69.1879 90.872 79.6221C79.273 94.8417 72.4116 98.1128 49.3719 94.622C32.8716 92.1221 11.3718 53.1221 19.3719 43.1219Z" fill="#009A47"/>
<path opacity="0.5" fill-rule="evenodd" clip-rule="evenodd" d="M18.6602 56.2457C18.4983 55.6192 18.3546 55.003 18.23 54.3988C18.3579 54.259 18.4941 54.1447 18.6083 54.0567C18.8449 53.8745 19.1162 53.7088 19.3772 53.5682C19.8815 53.2965 20.4721 53.0525 20.8802 52.9618C21.493 52.8256 22.0742 52.4536 22.8455 51.96L22.8469 51.9591C22.938 51.9008 23.0317 51.8409 23.1285 51.7794C23.8487 51.3216 24.7636 50.7657 25.8289 50.6368C25.8359 50.6229 25.8431 50.6089 25.8508 50.5949C26.2455 49.8712 26.5025 49.0628 26.7917 48.141L26.8043 48.1009C27.0799 47.2221 27.3889 46.2369 27.8869 45.3218C27.9491 45.2074 28.0118 45.093 28.0743 44.9789C28.6095 44.0022 29.1371 43.0395 29.3363 42.1705C27.4255 41.9552 25.0417 41.3065 23.4825 40.3536C23.1664 40.1605 22.9954 39.8199 23.0041 39.4744C23.3983 39.1498 23.8048 38.8331 24.2229 38.5243C24.3271 38.5477 24.4292 38.5883 24.5254 38.6471C25.9403 39.5117 28.4304 40.1415 30.1918 40.2368C30.3738 40.1322 30.558 40.0259 30.7444 39.9183L30.7454 39.9177L30.7459 39.9175C32.1081 39.1312 33.5834 38.2797 35.1095 37.5952C36.7791 36.8462 38.5757 36.2645 40.4661 36.1652C40.5001 35.8675 40.5782 35.5849 40.6707 35.3314C40.8841 34.7469 41.229 34.1678 41.5663 33.6541C41.7483 33.3769 41.9726 33.0549 42.1793 32.7582L42.1794 32.7581L42.1797 32.7577L42.1797 32.7576C42.3255 32.5483 42.4625 32.3516 42.5697 32.1921C42.8811 31.7288 43.0658 31.4042 43.138 31.1876C43.1489 31.1549 43.1613 31.1231 43.1752 31.0923C43.7283 31.0034 44.2846 30.9225 44.8435 30.85C45.066 31.108 45.1509 31.4733 45.0354 31.8201C44.8676 32.3234 44.5369 32.8505 44.2296 33.3078C44.0688 33.547 43.9223 33.7564 43.7788 33.9615L43.7785 33.9618L43.7784 33.9621L43.7782 33.9622L43.7781 33.9624C43.6006 34.216 43.4277 34.4631 43.2381 34.7518C42.9216 35.2339 42.6811 35.6566 42.5495 36.0172C42.4147 36.3864 42.4455 36.5492 42.4675 36.6041C42.4936 36.6694 42.6054 36.8137 42.9789 37.0816C43.091 37.162 43.1695 37.2153 43.2548 37.2733L43.2548 37.2734L43.2551 37.2735L43.2552 37.2736L43.2552 37.2736C43.3321 37.3259 43.4144 37.3819 43.5319 37.4648C43.7224 37.5993 43.9467 37.7663 44.1424 37.962C44.3808 38.2004 44.6235 38.5174 44.8145 38.7669C44.8685 38.8374 44.9184 38.9025 44.9629 38.959C45.2168 39.2811 45.3742 39.4339 45.4803 39.4945C46.0747 39.8342 46.7047 40.2931 47.2905 40.7199C47.4685 40.8495 47.6424 40.9762 47.81 41.0957C48.5196 41.6015 49.1503 42.0059 49.727 42.2272C51.2294 42.1954 52.8156 41.7465 54.4482 41.2843C54.8329 41.1754 55.2201 41.0658 55.6095 40.9608C57.4844 40.4548 59.389 39.963 61.3266 39.5891C61.334 38.2504 61.3956 35.9116 61.4567 34.1391C61.4892 33.1958 61.5222 32.3957 61.5476 31.9867C61.5538 31.8873 61.5605 31.7933 61.5682 31.7226L61.5685 31.7199C61.5707 31.6995 61.5796 31.6157 61.6025 31.5289C61.6089 31.505 61.6281 31.4339 61.6681 31.3498C61.6804 31.324 61.702 31.2813 61.7351 31.2308C62.3455 31.3414 62.9532 31.463 63.5574 31.5958C63.5737 31.6813 63.5774 31.7559 63.5782 31.7702L63.5783 31.7722C63.5806 31.8127 63.5821 31.8581 63.5832 31.9044C63.5854 31.9983 63.5864 32.1254 63.5864 32.2857C63.5864 32.4164 63.5613 32.5412 63.5157 32.6556C63.4973 33.0621 63.4765 33.5995 63.4555 34.208C63.3998 35.8246 63.3444 37.8929 63.3296 39.2336C63.5987 39.2994 63.8524 39.4186 64.0982 39.5712C66.0504 40.7829 68.0048 41.7455 70.0617 42.7586C70.5782 43.013 71.1011 43.2706 71.6321 43.5361C72.8219 44.1309 73.9406 44.8196 75.0176 45.5079C75.2938 45.6845 75.5661 45.8602 75.8361 46.0344L75.8378 46.0355L75.839 46.0363L75.8391 46.0363C76.3165 46.3444 76.7869 46.648 77.2596 46.9437C77.44 46.7671 77.6868 46.6583 77.9591 46.6583C79.2949 46.6583 80.9329 46.5 82.638 46.334L82.6768 46.3302C83.9946 46.202 85.3524 46.0698 86.5747 46.0205C87.0173 46.6381 87.4484 47.2765 87.866 47.9328C87.7538 47.9764 87.6317 48.0003 87.504 48.0003C86.1728 48.0003 84.5371 48.1586 82.8318 48.3246L82.8007 48.3276C81.4418 48.4599 80.0388 48.5965 78.7839 48.6423C78.7854 48.6897 78.7855 48.7344 78.785 48.775C78.7815 49.0417 78.7449 49.3496 78.705 49.623C78.664 49.9047 78.6131 50.1916 78.5712 50.4249L78.5659 50.4543C78.5234 50.6913 78.4973 50.8366 78.4888 50.9059C78.0711 54.3409 77.5838 57.7551 77.0057 61.1716L77.0056 61.1716L77.0056 61.1718L77.0036 61.1865C77.0023 61.1975 77.0006 61.2124 76.9988 61.2316C76.995 61.2706 76.9911 61.3201 76.9869 61.3816C76.9792 61.4932 76.9719 61.6261 76.9633 61.7823L76.9603 61.8372C76.9409 62.1892 76.9157 62.6321 76.8707 63.0704C76.8307 63.4597 76.7713 63.8865 76.6726 64.2645C77.0087 65.0525 77.5756 66.0954 78.2272 67.1533C79.0449 68.4807 79.9222 69.713 80.4977 70.3531C80.8883 70.7875 81.2158 71.2479 81.5068 71.6599L81.5412 71.7085C81.8279 72.1145 82.0798 72.4712 82.3637 72.7999C82.4505 72.9004 82.5264 72.9919 82.5921 73.0715L82.631 73.1187C82.6806 73.1789 82.7211 73.228 82.7601 73.274C82.8591 73.3904 82.8996 73.4263 82.9183 73.4405L82.9194 73.4414C82.9226 73.4441 82.9281 73.4487 82.9589 73.4571C83.009 73.4707 83.1125 73.4893 83.3199 73.4963C86.1493 73.5922 89.2266 74.3763 91.9339 75.066C92.315 75.1631 92.6887 75.2583 93.0533 75.3495C93.0952 75.36 93.1357 75.3729 93.1749 75.3882C92.9435 76.0224 92.6759 76.6406 92.3706 77.2402C92.0578 77.1616 91.7429 77.0816 91.4266 77.0012C88.8047 76.3348 86.0805 75.6424 83.5726 75.5092C83.5657 75.5774 83.5606 75.635 83.5552 75.6974C83.5497 75.7602 83.5438 75.8279 83.5351 75.9162C83.5196 76.0725 83.4971 76.268 83.4529 76.4559C83.3718 76.8004 83.3094 77.1516 83.241 77.5364L83.2297 77.5999C83.1586 77.9996 83.0802 78.4338 82.9709 78.8711C82.5451 80.5743 81.9833 82.1773 81.128 83.7611C81.1296 83.7583 81.1259 83.7668 81.1161 83.7891L81.1159 83.7897L81.0782 83.8767C81.0597 83.9196 81.0357 83.9756 81.0057 84.0465L80.9459 84.188L80.8753 84.3548C81.07 84.4293 81.2401 84.4985 81.3985 84.5629L81.3995 84.5633L81.4 84.5636L81.4001 84.5636L81.4002 84.5636C81.6876 84.6805 81.9363 84.7817 82.2229 84.8703L82.3346 84.9045L82.4624 84.9432L82.4624 84.9433L82.4625 84.9433C82.9633 85.0948 83.5751 85.2799 84.1274 85.556C84.2399 85.6123 84.4025 85.7215 84.5054 85.7906L84.5192 85.7998C84.5695 85.8336 84.6207 85.8682 84.6725 85.9032L84.6729 85.9034C84.7659 85.9662 84.861 86.0305 84.9578 86.0946C85.0712 86.1698 85.1671 86.2316 85.2398 86.2759C85.2716 86.2839 85.3027 86.2934 85.3332 86.3044C84.8506 86.8214 84.3705 87.3154 83.891 87.7869C83.8781 87.7784 83.8653 87.7699 83.8527 87.7616C83.7497 87.6933 83.64 87.6192 83.542 87.553L83.4046 87.4605C83.3301 87.4105 83.282 87.3791 83.2545 87.3612L83.2543 87.3611L83.2541 87.3609L83.2538 87.3607C83.2223 87.3401 83.2184 87.3376 83.2329 87.3449C82.8455 87.1511 82.4188 87.0211 81.9105 86.8663C81.8204 86.8388 81.7277 86.8106 81.6322 86.7811C81.2766 86.6712 80.8739 86.5088 80.5246 86.368L80.5245 86.368C80.3563 86.3002 80.2004 86.2373 80.0681 86.1877C79.9755 86.153 79.8864 86.1212 79.8005 86.0926C79.7527 86.1156 79.6986 86.1371 79.6384 86.1543C79.0751 86.3152 78.5011 86.3933 77.9997 86.4592L77.9246 86.469C77.4319 86.5337 77.0081 86.5893 76.6041 86.6903C74.946 87.1048 73.3064 87.5746 71.768 88.1996L71.7638 88.2018L71.7376 88.2155L71.7024 88.2345C71.6844 88.2443 71.6661 88.2544 71.6469 88.265C71.6261 88.2766 71.6042 88.2888 71.5803 88.3022L71.5795 88.3026L71.4783 88.359C71.345 88.433 71.1765 88.5249 70.9943 88.6134C70.8755 89.0774 70.6816 89.5159 70.4974 89.8894C70.3684 90.1511 70.2306 90.4065 70.1072 90.6354L70.1072 90.6355L70.102 90.6451C69.9734 90.8837 69.863 91.0888 69.7723 91.2761C69.5565 91.7217 69.302 92.1462 69.0741 92.5263L68.9874 92.6709C68.7289 93.1039 68.5081 93.4878 68.3409 93.8831C68.2637 94.0656 68.2168 94.2721 68.1437 94.5942L68.1436 94.5943L68.138 94.6191C68.0739 94.9014 67.9852 95.2904 67.8079 95.6659C67.2335 95.7289 66.6449 95.7787 66.0407 95.8156C65.8587 95.5291 65.8271 95.157 65.99 94.8313C66.0643 94.6827 66.1158 94.4926 66.1877 94.1763L66.204 94.104C66.2653 93.8309 66.3492 93.4578 66.499 93.1038C66.7255 92.5684 67.0111 92.0795 67.2704 91.6454L67.3583 91.4984C67.5916 91.1089 67.7979 90.7643 67.9723 90.4042C68.0842 90.1733 68.2147 89.9313 68.3372 89.7041L68.3416 89.696C68.4692 89.4592 68.5916 89.2322 68.7036 89.0049C68.7578 88.895 68.8068 88.7903 68.8505 88.6908C68.7515 88.6135 68.6578 88.5162 68.5745 88.3945C68.3524 88.0699 68.0049 87.7374 67.5572 87.3652C67.4152 87.2472 67.2507 87.1156 67.0791 86.9784C66.7734 86.7341 66.4455 86.472 66.1838 86.237C65.5014 85.624 64.812 85.0121 64.1205 84.3982L64.1204 84.3981L64.1202 84.398C62.5558 83.0093 60.9803 81.6107 59.4482 80.168C59.3034 80.0317 59.1505 79.9011 58.975 79.7512L58.9747 79.7509L58.9746 79.7509L58.9746 79.7508C58.8786 79.6688 58.7758 79.5811 58.6639 79.4834C58.4507 79.2973 58.2138 79.0828 57.9968 78.8484C57.8982 78.8809 57.7929 78.8984 57.6835 78.8984C57.0055 78.8984 56.3586 79.0505 55.5463 79.2444C55.155 79.3377 54.7801 79.4164 54.4198 79.4919L54.4198 79.4919C53.4897 79.6869 52.6569 79.8616 51.8887 80.2176C51.0795 80.5926 50.2086 81.1341 49.3626 81.6603L49.2147 81.7522L49.2095 81.7639C49.1723 81.8495 49.1329 81.9855 49.094 82.1831C49.0627 82.3425 49.0386 82.5035 49.0123 82.6798L49.0122 82.68L49.0122 82.6801L48.9932 82.8065C48.9631 83.0048 48.9223 83.2667 48.8546 83.4886C48.3386 85.1798 47.5836 86.7812 46.8548 88.3051L46.7554 88.5129C46.0521 89.9826 45.3832 91.3804 44.9034 92.8197C44.8715 92.9155 44.8264 93.0033 44.771 93.0817C44.1931 92.7914 43.6131 92.4663 43.0323 92.109C43.5506 90.5755 44.257 89.0999 44.9348 87.6841L45.0505 87.4422C45.785 85.9064 46.4756 84.4326 46.9416 82.905C46.9597 82.8457 46.9821 82.7288 47.0159 82.5064L47.0317 82.401L47.0317 82.4008L47.0317 82.4007L47.0318 82.4C47.0427 82.3272 47.0545 82.248 47.0675 82.1655C46.807 82.0772 46.5101 81.9507 46.2069 81.8106C45.4659 81.468 44.5238 80.9663 43.612 80.4596C42.6952 79.9501 41.7891 79.4243 41.1134 79.0267C40.7753 78.8277 40.4941 78.6604 40.2972 78.5426C40.2697 78.5262 40.2439 78.5107 40.2197 78.4963C40.1574 78.4589 40.1066 78.4284 40.0684 78.4054L40.0077 78.3688L39.992 78.3593L39.9878 78.3568L39.9867 78.3562L39.9864 78.356C39.9864 78.3559 39.9863 78.3559 40.504 77.5004L39.9291 78.3186L39.9289 78.3184L39.9282 78.3179L39.9254 78.316L39.9145 78.3083L39.8719 78.2784L39.7106 78.1648C39.5714 78.0667 39.3722 77.9262 39.1317 77.7562C38.6509 77.4163 38.0046 76.958 37.3437 76.4851C36.6834 76.0127 36.0055 75.5237 35.4624 75.1228C35.1913 74.9227 34.9499 74.7416 34.7595 74.5942C34.7271 74.5691 34.6942 74.5436 34.6616 74.5179C34.4937 74.522 34.3985 74.5378 34.3267 74.5588C34.2488 74.5815 34.147 74.6253 33.9781 74.7454C33.8304 74.8505 33.6821 74.9577 33.5325 75.0658L33.5322 75.066L33.5291 75.0683L33.5289 75.0684L33.5288 75.0685C32.5089 75.8057 31.4265 76.5881 30.0362 77.0736C29.7391 77.1774 29.3544 77.2443 29.0339 77.2978C28.9561 77.3108 28.8787 77.3234 28.8017 77.336L28.8014 77.3361L28.8013 77.3361C28.7761 77.3402 28.751 77.3443 28.7259 77.3484C28.317 76.7506 27.9153 76.1456 27.5216 75.5348C27.5409 75.5307 27.5601 75.5267 27.5792 75.5227C27.8933 75.4578 28.2193 75.4046 28.5005 75.3586L28.5006 75.3586C28.5719 75.347 28.6403 75.3358 28.7049 75.325C29.0617 75.2655 29.2706 75.2225 29.3768 75.1854C30.4731 74.8026 31.3062 74.203 32.3407 73.4584L32.3416 73.4578C32.4956 73.3469 32.6541 73.2329 32.8186 73.1159C33.1183 72.9026 33.4211 72.7395 33.7671 72.6386C33.901 72.5996 34.0328 72.5725 34.163 72.5539C34.3435 71.7475 34.63 70.7993 34.9236 69.9034C35.3229 68.6848 35.7635 67.4806 36.0468 66.7062L36.047 66.7057L36.0471 66.7055L36.0649 66.6568C36.2972 66.0219 36.4982 65.2991 36.7167 64.5136C36.7921 64.2424 36.8696 63.9639 36.9511 63.6788C37.1605 62.9473 37.3955 62.1795 37.686 61.4654C37.6074 61.4107 37.5363 61.3582 37.4732 61.3114L37.4003 61.2572C37.1642 61.0816 37.0286 60.9808 36.8811 60.9109C36.2199 60.5977 35.6297 60.1549 35.1167 59.7406C34.9352 59.594 34.7673 59.4546 34.6071 59.3216L34.6069 59.3214C34.2838 59.0531 33.9918 58.8107 33.6815 58.5869C31.7633 57.2033 29.8749 55.7164 28.0905 54.155C28.0712 54.1381 28.045 54.1155 28.013 54.0878L28.011 54.0861L28.0105 54.0856C27.784 53.8896 27.2716 53.4463 26.8166 52.9904C26.6928 52.8664 26.5647 52.7331 26.4427 52.5964C26.3904 52.6048 26.3367 52.6092 26.2819 52.6092C25.6731 52.6092 25.0553 52.9245 24.2013 53.4673C24.1129 53.5234 24.0211 53.5828 23.9261 53.6442L23.9256 53.6445C23.2059 54.1099 22.3012 54.6948 21.3141 54.9141C21.1549 54.9495 20.7455 55.1028 20.3257 55.3289C20.1247 55.4373 19.9529 55.5456 19.8289 55.6411C19.7535 55.6992 19.7188 55.735 19.7079 55.7463L19.7069 55.7473C19.496 56.1263 19.0706 56.318 18.6602 56.2457ZM40.504 77.5004L39.9292 78.3186L39.9571 78.3382L39.9863 78.3559L40.504 77.5004ZM47.8721 80.2578C47.9362 80.2012 48.0069 80.148 48.0848 80.0996L48.3207 79.9529L48.3208 79.9529L48.3208 79.9528C49.1445 79.4401 50.1203 78.8328 51.0478 78.4029C52.0419 77.9423 53.2096 77.6982 54.2036 77.4905C54.5174 77.4249 54.8139 77.363 55.0821 77.299L55.1511 77.2825C55.9056 77.1022 56.7587 76.8984 57.6835 76.8984C57.7178 76.8984 57.7517 76.9002 57.7852 76.9035C57.8619 76.7217 57.9495 76.5353 58.034 76.3618C58.1382 76.148 58.2507 75.928 58.3492 75.7352L58.3493 75.735L58.433 75.571C58.4922 75.4547 58.5418 75.3557 58.5808 75.2744C58.6001 75.2341 58.6151 75.2016 58.6263 75.1762L58.6358 75.1543L58.6405 75.1428L58.6421 75.1387L58.6422 75.1387C58.9499 74.2923 59.1056 73.4287 59.2774 72.4758C59.3395 72.1319 59.4036 71.7764 59.4777 71.4058C59.6211 70.6889 59.8214 69.9711 60.0099 69.2952L60.01 69.295C60.0502 69.1508 60.0899 69.0085 60.1284 68.8685C60.3215 68.1666 60.49 67.5053 60.5899 66.8562C60.3748 66.6761 60.1798 66.4779 60.0026 66.2946C59.9614 66.252 59.9205 66.2095 59.8796 66.167C59.681 65.9605 59.4816 65.7532 59.2408 65.5283C57.8278 64.2096 56.2871 63.0361 54.7002 61.8275L54.7002 61.8275L54.7001 61.8274L54.7001 61.8274L54.7001 61.8274L54.6999 61.8273L54.5849 61.7396C52.9714 60.5106 51.3135 59.2417 49.7944 57.7906C49.7168 57.7165 49.6416 57.6395 49.5705 57.559C47.4466 58.2857 42.0352 60.6591 39.7426 61.7542C39.4135 62.4437 39.1413 63.2946 38.874 64.229C38.8036 64.475 38.7331 64.7285 38.6619 64.9848L38.6618 64.985L38.6618 64.985C38.4375 65.7922 38.2054 66.6273 37.9432 67.3439L37.9279 67.3858C37.6438 68.1622 37.2128 69.3401 36.8241 70.5263C36.51 71.4848 36.2405 72.3988 36.0914 73.0955C36.2472 73.2144 36.4363 73.3558 36.6502 73.5137C37.1813 73.9057 37.8498 74.3881 38.5074 74.8585C39.1643 75.3285 39.8073 75.7845 40.2862 76.1231C40.5257 76.2924 40.724 76.4322 40.8624 76.5297L41.0226 76.6425L41.0507 76.6622L41.0997 76.6918C41.1512 76.7228 41.227 76.7683 41.3237 76.8261C41.5172 76.9418 41.7943 77.1068 42.1278 77.303C42.7955 77.696 43.6863 78.2128 44.5835 78.7114C45.4858 79.2128 46.375 79.6849 47.0462 79.9952C47.3418 80.1318 47.566 80.2234 47.7173 80.274C47.7682 80.2646 47.82 80.2592 47.8721 80.2578ZM49.1267 55.6023C49.1391 55.5502 49.1514 55.5011 49.1623 55.4574L49.1623 55.4574C49.1713 55.4217 49.1793 55.3895 49.1858 55.3622C49.2283 55.1841 49.2668 54.9948 49.2857 54.7585C49.3655 53.7611 49.3564 52.7685 49.3468 51.7282C49.3436 51.3812 49.3404 51.0289 49.3404 50.6694V50.6548V50.6403V50.6258V50.6112V50.5967V50.5822V50.5676V50.5531V50.5386V50.524V50.5095V50.495V50.4804V50.4659V50.4514V50.4368V50.4223V50.4078V50.3932V50.3787V50.3642V50.3497V50.3351V50.3206V50.3061V50.2915V50.277V50.2625V50.2479V50.2334V50.2189V50.2043V50.1898V50.1753V50.1607V50.1462V50.1317V50.1171V50.1026V50.0881V50.0735V50.059V50.0445V50.03V50.0154V50.0009V49.9864V49.9718V49.9573V49.9428V49.9282V49.9137V49.8992V49.8846V49.8701V49.8556V49.841V49.8265V49.812V49.7974V49.7829V49.7684V49.7538V49.7393V49.7248V49.7102V49.6957V49.6812V49.6667V49.6521V49.6376V49.6231V49.6085V49.594V49.5795V49.5649V49.5504V49.5359V49.5213V49.5068V49.4923V49.4777V49.4632V49.4487V49.4341V49.4196V49.4051V49.3905V49.376V49.3615V49.347V49.3324V49.3179V49.3034V49.2888V49.2743V49.2598V49.2452V49.2307V49.2162V49.2016V49.1871V49.1726V49.158V49.1435V49.129V49.1144V49.0999V49.0854V49.0708V49.0563V49.0418V49.0273V49.0127V48.9982V48.9837V48.9691V48.9546V48.9401V48.9255V48.911V48.8965V48.8819V48.8674V48.8529V48.8383V48.8238V48.8093V48.7947V48.7802V48.7657V48.7511V48.7366V48.7221V48.7076V48.693V48.6785V48.664V48.6494V48.6349V48.6204V48.6058V48.5913V48.5768V48.5622V48.5477V48.5332V48.5186V48.5041V48.4896V48.475V48.4605V48.446V48.4314V48.4169V48.4024V48.3878V48.3733V48.3588V48.3443V48.3297V48.3152V48.3007V48.2861V48.2716V48.2571V48.2425V48.228V48.2135V48.1989V48.1844V48.1699V48.1553V48.1408V48.1263V48.1117V48.0972V48.0827V48.0681V48.0536V48.0391V48.0245V48.01V47.9955V47.981V47.9664V47.9519V47.9374V47.9228V47.9083V47.8938V47.8792V47.8647V47.8502V47.8356V47.8211V47.8066V47.792V47.7775V47.763V47.7484V47.7339V47.7194V47.7048V47.6903V47.6758V47.6613V47.6467V47.6322V47.6177V47.6031V47.5886V47.5741V47.5595V47.545V47.5305V47.5159V47.5014V47.4869V47.4723V47.4578V47.4433V47.4287V47.4142V47.3997V47.3851V47.3706V47.3561V47.3416V47.327V47.3125V47.298V47.2834V47.2689V47.2544V47.2398V47.2253V47.2108V47.1962V47.1817V47.1672V47.1526V47.1381V47.1236V47.109V47.0945V47.08V47.0654V47.0509V47.0364V47.0218V47.0073V46.9928V46.9783V46.9637V46.9492V46.9347V46.9201V46.9056V46.8911V46.8765V46.862V46.8475V46.8329V46.8184V46.8039V46.7893V46.7748V46.7603V46.7457V46.7312V46.7167V46.7021V46.6876V46.6731V46.6586V46.644V46.6295V46.615V46.6004V46.5859V46.5714V46.5568V46.5423V46.5278V46.5132V46.4987V46.4842V46.4696V46.4551V46.4406V46.426V46.4115V46.397V46.3824V46.3679V46.3534V46.3389V46.3243V46.3098V46.2953V46.2807V46.2662V46.2517V46.2371V46.2226V46.2081V46.1935V46.179V46.1645V46.1499V46.1354V46.1209V46.1063V46.0918V46.0773V46.0627V46.0482V46.0337V46.0191V46.0046V45.9901V45.9756V45.961V45.9465V45.932V45.9174V45.9029V45.8884V45.8738V45.8593V45.8448V45.8302V45.8157V45.8012V45.7866V45.7721V45.7576V45.743V45.7285V45.714V45.6994V45.6849V45.6704V45.6559V45.6413V45.6268V45.6123V45.5977V45.5832V45.5687V45.5541V45.5396V45.5251V45.5105V45.496V45.4815V45.4669V45.4524V45.4379V45.4233V45.4088V45.3943V45.3797V45.3652V45.3507V45.3361V45.3216V45.3071V45.2926V45.278V45.2635V45.249V45.2344V45.2199V45.2054V45.1908V45.1763V45.1618V45.1472V45.1327V45.1182V45.1036V45.0891V45.0746V45.06V45.0455V45.031V45.0164V45.0019V44.9874V44.9729V44.9583V44.9438V44.9293V44.9147V44.9002V44.8857V44.8711V44.8566V44.8421V44.8275V44.813V44.7985V44.7839V44.7694V44.7549V44.7403V44.7258V44.7113V44.6967V44.6822V44.6677V44.6532V44.6386V44.6241V44.6096V44.595V44.5805V44.566V44.5514V44.5369V44.5224V44.5078V44.4933V44.4788V44.4642V44.4497V44.4352V44.4206V44.4061V44.3916V44.377V44.3625V44.348V44.3334V44.3189V44.3044V44.2899V44.2753V44.2608V44.2463V44.2317V44.2172V44.2051C49.2982 44.1957 49.2571 44.1837 49.2171 44.1691C48.2971 43.8572 47.4137 43.2693 46.649 42.7242C46.4378 42.5736 46.236 42.4268 46.0416 42.2853L46.0407 42.2846L46.0404 42.2844L46.0404 42.2844C45.478 41.8751 44.9775 41.5107 44.488 41.231C44.008 40.9567 43.641 40.5128 43.3921 40.1969C43.3032 40.0841 43.2258 39.9832 43.1559 39.8922L43.1559 39.8921C42.9893 39.675 42.8652 39.5132 42.7282 39.3763C42.6576 39.3057 42.548 39.2184 42.3783 39.0986C42.3333 39.0668 42.2589 39.0157 42.1757 38.9586C42.0516 38.8733 41.9079 38.7747 41.8132 38.7067C41.6205 38.5685 41.3729 38.3834 41.1428 38.1444C41.1069 38.1483 41.0704 38.1503 41.0335 38.1503C39.3258 38.1503 37.6289 38.657 35.928 39.42C34.5036 40.0589 33.1325 40.8499 31.7703 41.6357L31.7695 41.6362C31.6261 41.7188 31.4829 41.8015 31.3397 41.8839L31.3399 41.8879L31.3399 41.888L31.3399 41.8881C31.3413 41.9214 31.3428 41.9578 31.3443 42C31.3462 42.0524 31.348 42.1175 31.347 42.1825C31.3461 42.2377 31.343 42.3429 31.3199 42.4581C31.0755 43.6801 30.3628 44.9724 29.8309 45.9366C29.7653 46.0555 29.7025 46.1695 29.6436 46.2777C29.2469 47.0067 28.9891 47.8182 28.7 48.7397L28.6872 48.7804C28.4537 49.5249 28.1965 50.3449 27.8209 51.1322C27.9244 51.2579 28.0644 51.4095 28.2322 51.5776C28.629 51.9752 29.0759 52.3624 29.3114 52.5664L29.3114 52.5664C29.3493 52.5992 29.3817 52.6273 29.4075 52.6499C31.14 54.1658 32.9788 55.614 34.8515 56.9648C35.2177 57.229 35.598 57.5445 35.9491 57.8357L35.9493 57.8359C36.0969 57.9583 36.2393 58.0764 36.3733 58.1847C36.8609 58.5784 37.2998 58.8962 37.7373 59.1034C38.0779 59.2648 38.3812 59.4924 38.5897 59.6489L38.5904 59.6494C38.6168 59.6693 38.6418 59.688 38.6651 59.7053C38.7885 59.7968 38.8834 59.863 38.9617 59.911C41.373 58.7643 46.9035 56.3393 49.0423 55.6264C49.0703 55.617 49.0985 55.609 49.1267 55.6023ZM78.8605 83.9088L78.891 83.9089L78.8952 83.8992C78.9664 83.7341 79.0368 83.5675 79.1012 83.4151L79.1014 83.4147L79.1642 83.2662L79.172 83.2478L79.1721 83.2476L79.1722 83.2474L79.1722 83.2473C79.2363 83.0961 79.3167 82.9062 79.3682 82.8108C80.1257 81.4081 80.6347 79.9697 81.0306 78.3861C81.1211 78.0242 81.1889 77.6533 81.2606 77.2497L81.2743 77.1727C81.3404 76.8006 81.4118 76.3982 81.506 75.9978C81.5294 75.8986 81.5384 75.7941 81.5528 75.6287C81.5615 75.5282 81.5721 75.4054 81.5891 75.2476C81.5975 75.1691 81.6083 75.0732 81.625 74.9664C81.4668 74.8337 81.3393 74.6906 81.2361 74.5691C81.1644 74.4847 81.1155 74.425 81.0677 74.3667L81.0674 74.3663L81.0673 74.3662C81.0074 74.293 80.9493 74.222 80.8501 74.1071C80.5003 73.7022 80.1967 73.272 79.9242 72.8859L79.9241 72.8858L79.9241 72.8858L79.9241 72.8857L79.924 72.8857L79.924 72.8856L79.8733 72.8139C79.5778 72.3955 79.3123 72.026 79.0104 71.6903C78.3165 70.9184 77.3658 69.5683 76.5243 68.2022C76.0376 67.412 75.5621 66.5758 75.1835 65.8073C74.373 66.058 73.4976 66.1849 72.6829 66.2744C72.3013 66.3162 71.9411 66.3495 71.5975 66.3813L71.5971 66.3813C71.0078 66.4357 70.467 66.4857 69.9505 66.5669C68.8235 66.7439 67.6954 66.8973 66.5787 67.0489L66.5207 67.0567C65.4204 67.206 64.3315 67.3537 63.2469 67.5225C62.9862 67.563 62.7361 67.5835 62.4946 67.5797C62.3764 68.2079 62.2166 68.8181 62.0568 69.399C62.0142 69.554 61.9717 69.7064 61.9298 69.8566L61.9294 69.8581C61.7419 70.5309 61.5662 71.1614 61.4388 71.7981C61.3818 72.0833 61.3276 72.385 61.2714 72.6973L61.2714 72.6974C61.0921 73.6948 60.8933 74.8003 60.5217 75.8221C60.455 76.0056 60.3241 76.2646 60.2157 76.4776L60.1241 76.6572C60.027 76.847 59.9269 77.043 59.8319 77.2379C59.7539 77.398 59.6873 77.5414 59.6352 77.6635C59.7364 77.7612 59.8513 77.8651 59.979 77.9765C60.0539 78.0419 60.1372 78.1132 60.2241 78.1875L60.2246 78.1879L60.2247 78.188L60.2247 78.188C60.423 78.3576 60.64 78.5432 60.8192 78.712C62.3294 80.134 63.8685 81.5002 65.4221 82.8792C66.119 83.4978 66.8188 84.119 67.5202 84.749C67.7503 84.9557 67.9844 85.142 68.2467 85.3507L68.2467 85.3508L68.2472 85.3511C68.4275 85.4947 68.6212 85.6488 68.836 85.8274C69.2034 86.133 69.6026 86.4883 69.9434 86.8951C69.9614 86.8875 69.9802 86.8794 69.9996 86.8708C70.1646 86.7974 70.3388 86.7041 70.5078 86.6102L70.5911 86.5638C70.6448 86.5338 70.6994 86.5034 70.7446 86.4787C70.8055 86.4455 70.9059 86.3912 71.0027 86.3518C72.6724 85.6724 74.4209 85.1746 76.119 84.75C76.6389 84.6201 77.1703 84.5506 77.6355 84.4898L77.739 84.4763C77.787 84.47 77.8343 84.4637 77.8809 84.4574C77.9124 84.4532 77.9436 84.4489 77.9745 84.4447C78.1417 84.1261 78.4757 83.9088 78.8605 83.9088ZM74.5068 63.9226C74.5268 63.6677 74.6445 63.4292 74.8335 63.2582C74.851 63.1366 74.8669 63.0053 74.8812 62.8661C74.9208 62.4806 74.9438 62.0812 74.9633 61.7272L74.9682 61.6389C74.9839 61.3491 75.0012 61.0297 75.0337 60.8379C75.6061 57.4553 76.089 54.0721 76.5035 50.6644C76.5192 50.535 76.5555 50.3337 76.5902 50.1408L76.5902 50.1407L76.5903 50.1404L76.5904 50.14L76.6027 50.0715C76.6446 49.8377 76.6902 49.5801 76.7259 49.3347C76.7447 49.2059 76.7592 49.0904 76.7692 48.9909C76.078 48.571 75.3968 48.1314 74.7289 47.7003L74.7288 47.7003L74.7288 47.7003L74.7288 47.7002L74.7287 47.7002L74.7287 47.7002L74.7287 47.7002L74.7286 47.7001L74.7286 47.7001L74.7286 47.7001L74.7285 47.7001L74.7285 47.7001L74.7285 47.7L74.7259 47.6984C74.462 47.5281 74.2001 47.3591 73.9405 47.1931C72.8769 46.5134 71.8301 45.8711 70.7377 45.3249C70.2308 45.0714 69.7238 44.8218 69.2169 44.5723C67.1506 43.5549 65.0871 42.5389 63.0435 41.2704C62.9431 41.2081 62.8862 41.1861 62.8635 41.1789L62.8493 41.1828C62.7964 41.1982 62.7556 41.2149 62.6757 41.2474C62.6293 41.2663 62.5698 41.2906 62.4871 41.3231C62.2945 41.3987 62.0453 41.4875 61.7332 41.5476C59.8616 41.9075 58.0063 42.3855 56.1305 42.8917C55.8017 42.9804 55.4567 43.0787 55.0992 43.1805C53.9354 43.5121 52.6392 43.8813 51.3404 44.0811V44.0864V44.1009V44.1155V44.13V44.1445V44.1591V44.1736V44.1881V44.2027V44.2172V44.2317V44.2463V44.2608V44.2753V44.2899V44.3044V44.3189V44.3334V44.348V44.3625V44.377V44.3916V44.4061V44.4206V44.4352V44.4497V44.4642V44.4788V44.4933V44.5078V44.5224V44.5369V44.5514V44.566V44.5805V44.595V44.6096V44.6241V44.6386V44.6532V44.6677V44.6822V44.6967V44.7113V44.7258V44.7403V44.7549V44.7694V44.7839V44.7985V44.813V44.8275V44.8421V44.8566V44.8711V44.8857V44.9002V44.9147V44.9293V44.9438V44.9583V44.9729V44.9874V45.0019V45.0164V45.031V45.0455V45.06V45.0746V45.0891V45.1036V45.1182V45.1327V45.1472V45.1618V45.1763V45.1908V45.2054V45.2199V45.2344V45.249V45.2635V45.278V45.2926V45.3071V45.3216V45.3361V45.3507V45.3652V45.3797V45.3943V45.4088V45.4233V45.4379V45.4524V45.4669V45.4815V45.496V45.5105V45.5251V45.5396V45.5541V45.5687V45.5832V45.5977V45.6123V45.6268V45.6413V45.6559V45.6704V45.6849V45.6994V45.714V45.7285V45.743V45.7576V45.7721V45.7866V45.8012V45.8157V45.8302V45.8448V45.8593V45.8738V45.8884V45.9029V45.9174V45.932V45.9465V45.961V45.9756V45.9901V46.0046V46.0191V46.0337V46.0482V46.0627V46.0773V46.0918V46.1063V46.1209V46.1354V46.1499V46.1645V46.179V46.1935V46.2081V46.2226V46.2371V46.2517V46.2662V46.2807V46.2953V46.3098V46.3243V46.3389V46.3534V46.3679V46.3824V46.397V46.4115V46.426V46.4406V46.4551V46.4696V46.4842V46.4987V46.5132V46.5278V46.5423V46.5568V46.5714V46.5859V46.6004V46.615V46.6295V46.644V46.6586V46.6731V46.6876V46.7021V46.7167V46.7312V46.7457V46.7603V46.7748V46.7893V46.8039V46.8184V46.8329V46.8475V46.862V46.8765V46.8911V46.9056V46.9201V46.9347V46.9492V46.9637V46.9783V46.9928V47.0073V47.0218V47.0364V47.0509V47.0654V47.08V47.0945V47.109V47.1236V47.1381V47.1526V47.1672V47.1817V47.1962V47.2108V47.2253V47.2398V47.2544V47.2689V47.2834V47.298V47.3125V47.327V47.3416V47.3561V47.3706V47.3851V47.3997V47.4142V47.4287V47.4433V47.4578V47.4723V47.4869V47.5014V47.5159V47.5305V47.545V47.5595V47.5741V47.5886V47.6031V47.6177V47.6322V47.6467V47.6613V47.6758V47.6903V47.7048V47.7194V47.7339V47.7484V47.763V47.7775V47.792V47.8066V47.8211V47.8356V47.8502V47.8647V47.8792V47.8938V47.9083V47.9228V47.9374V47.9519V47.9664V47.981V47.9955V48.01V48.0245V48.0391V48.0536V48.0681V48.0827V48.0972V48.1117V48.1263V48.1408V48.1553V48.1699V48.1844V48.1989V48.2135V48.228V48.2425V48.2571V48.2716V48.2861V48.3007V48.3152V48.3297V48.3443V48.3588V48.3733V48.3878V48.4024V48.4169V48.4314V48.446V48.4605V48.475V48.4896V48.5041V48.5186V48.5332V48.5477V48.5622V48.5768V48.5913V48.6058V48.6204V48.6349V48.6494V48.664V48.6785V48.693V48.7076V48.7221V48.7366V48.7511V48.7657V48.7802V48.7947V48.8093V48.8238V48.8383V48.8529V48.8674V48.8819V48.8965V48.911V48.9255V48.9401V48.9546V48.9691V48.9837V48.9982V49.0127V49.0273V49.0418V49.0563V49.0708V49.0854V49.0999V49.1144V49.129V49.1435V49.158V49.1726V49.1871V49.2016V49.2162V49.2307V49.2452V49.2598V49.2743V49.2888V49.3034V49.3179V49.3324V49.347V49.3615V49.376V49.3905V49.4051V49.4196V49.4341V49.4487V49.4632V49.4777V49.4923V49.5068V49.5213V49.5359V49.5504V49.5649V49.5795V49.594V49.6085V49.6231V49.6376V49.6521V49.6667V49.6812V49.6957V49.7102V49.7248V49.7393V49.7538V49.7684V49.7829V49.7974V49.812V49.8265V49.841V49.8556V49.8701V49.8846V49.8992V49.9137V49.9282V49.9428V49.9573V49.9718V49.9864V50.0009V50.0154V50.03V50.0445V50.059V50.0735V50.0881V50.1026V50.1171V50.1317V50.1462V50.1607V50.1753V50.1898V50.2043V50.2189V50.2334V50.2479V50.2625V50.277V50.2915V50.3061V50.3206V50.3351V50.3497V50.3642V50.3787V50.3932V50.4078V50.4223V50.4368V50.4514V50.4659V50.4804V50.495V50.5095V50.524V50.5386V50.5531V50.5676V50.5822V50.5967V50.6112V50.6258V50.6403V50.6548V50.6694C51.3404 50.987 51.3434 51.3126 51.3465 51.6436C51.3565 52.7051 51.3669 53.8232 51.2793 54.918C51.2492 55.2943 51.1869 55.5929 51.1312 55.8263C51.1093 55.9181 51.0923 55.9865 51.079 56.0401L51.0789 56.0404C51.0602 56.1158 51.0488 56.1617 51.0414 56.2017C51.0654 56.2315 51.1069 56.2784 51.1759 56.3443C52.6023 57.7068 54.1729 58.9117 55.7968 60.1486L55.9426 60.2597L55.9427 60.2598C57.5069 61.451 59.1179 62.6779 60.6054 64.0662C60.8893 64.3312 61.1308 64.5824 61.33 64.7897L61.3301 64.7898L61.3301 64.7899C61.3522 64.8128 61.3738 64.8353 61.3948 64.8571C61.4103 64.8732 61.4255 64.889 61.4405 64.9045C61.6719 65.1438 61.8249 65.2916 61.966 65.3956C62.0901 65.487 62.19 65.5325 62.3027 65.5568C62.4252 65.5833 62.6182 65.5962 62.9395 65.5462C64.0435 65.3745 65.1491 65.2245 66.2435 65.076L66.3098 65.067C67.4292 64.9151 68.5371 64.7644 69.6401 64.5911C70.2128 64.5011 70.8717 64.4397 71.5094 64.3803H71.5094C71.8384 64.3497 72.1617 64.3195 72.4646 64.2863C73.2235 64.203 73.9146 64.0964 74.5068 63.9226ZM63.5564 31.9397C63.5579 31.9264 63.558 31.9289 63.5562 31.9417L63.5564 31.9397ZM61.5818 31.8915C61.5802 31.8747 61.5806 31.8711 61.5816 31.888L61.5818 31.8915ZM49.2341 81.7153C49.2341 81.7154 49.2333 81.7168 49.2314 81.7194C49.2332 81.7165 49.2341 81.7152 49.2341 81.7153Z" fill="white"/>
</svg>
