<svg width="24" height="24" viewBox="0 0 24 24" fill="none" xmlns="http://www.w3.org/2000/svg">
<circle cx="12" cy="8.5" r="4" fill="#98BFFA"/>
<path d="M12 13.5C14.7889 13.5 16.6056 14.2292 17.7889 15.1792C19.9423 16.9079 17.7614 19.5 15 19.5H9C6.23858 19.5 4.0577 16.9079 6.21108 15.1792C7.39443 14.2292 9.21109 13.5 12 13.5Z" fill="#98BFFA"/>
<path fill-rule="evenodd" clip-rule="evenodd" d="M21 10C21 9.44772 20.5523 9 20 9C19.4477 9 19 9.44772 19 10V11H18C17.4477 11 17 11.4477 17 12C17 12.5523 17.4477 13 18 13H19V14C19 14.5523 19.4477 15 20 15C20.5523 15 21 14.5523 21 14V13H22C22.5523 13 23 12.5523 23 12C23 11.4477 22.5523 11 22 11H21V10Z" fill="#408CFF"/>
</svg>
