<svg width="100" height="100" viewBox="0 0 100 100" fill="none" xmlns="http://www.w3.org/2000/svg">
<path d="M19.6465 4.18992C34.9409 -1.73468 51.5418 14.7485 59.3204 29.6887C63.187 37.1151 46.1893 42.9203 35.8204 42.1887C24.99 41.4245 22.6396 43.1859 13.3202 29.6887C6.88544 20.3692 9.32053 8.18988 19.6465 4.18992Z" fill="#01D864"/>
<rect x="17.6465" y="9.38049" width="2" height="8" rx="1" fill="black"/>
<rect x="22.6465" y="9.95288" width="2" height="8" rx="1" fill="black"/>
<path d="M7.68087 45.8972C13.6131 40.2346 30.1465 53.8805 30.1465 53.8805C30.1465 53.8805 36.6951 64.8008 28.6809 67.8972C25.5846 69.0934 23.401 68.7037 20.1811 67.8972C10.5957 65.4961 1.4661 51.8294 7.68087 45.8972Z" fill="#01D864"/>
<path d="M27.1465 86.3805C38.1465 85.3805 54.1463 81.3805 54.1463 81.3805V94.3805C54.1463 94.3805 38.6465 100.381 29.1463 94.3805C24.8539 91.6695 22.0905 86.8402 27.1465 86.3805Z" fill="#01D864"/>
<path d="M19.3719 43.1219C31.3257 28.1794 66.025 24.7751 82.872 41.6221C91.872 50.6221 98.824 69.1879 90.872 79.6221C79.273 94.8417 72.4116 98.1128 49.3719 94.622C32.8716 92.1221 11.3718 53.1221 19.3719 43.1219Z" fill="#009A47"/>
</svg>
