<svg width="134" height="49" viewBox="0 0 134 49" fill="none" xmlns="http://www.w3.org/2000/svg">
<g filter="url(#filter0_dii_488_1110)">
<path fill-rule="evenodd" clip-rule="evenodd" d="M124.411 16.3075C109.914 30.938 89.8063 40 67.5824 40C43.6923 40 22.2481 29.5282 7.58936 12.9243C13.446 10.7718 26.7788 10.0575 32.7035 10.001C37.1131 9.95887 39.4572 10.8869 41.9338 11.8673C44.0764 12.7156 46.3182 13.603 50.0823 13.9356C55.265 14.3934 59.3941 13.7141 63.5852 13.0245C67.4135 12.3946 71.2936 11.7562 76.0757 11.9682C83.6857 12.3056 94.0824 19.0001 94.0824 19.0001C94.0824 19.0001 121.198 9.44423 124.411 16.3075Z" fill="url(#paint0_linear_488_1110)"/>
</g>
<defs>
<filter id="filter0_dii_488_1110" x="0.589355" y="2.99957" width="132.821" height="46.0004" filterUnits="userSpaceOnUse" color-interpolation-filters="sRGB">
<feFlood flood-opacity="0" result="BackgroundImageFix"/>
<feColorMatrix in="SourceAlpha" type="matrix" values="0 0 0 0 0 0 0 0 0 0 0 0 0 0 0 0 0 0 127 0" result="hardAlpha"/>
<feOffset dx="1" dy="1"/>
<feGaussianBlur stdDeviation="4"/>
<feComposite in2="hardAlpha" operator="out"/>
<feColorMatrix type="matrix" values="0 0 0 0 0 0 0 0 0 0 0 0 0 0 0 0 0 0 0.2 0"/>
<feBlend mode="normal" in2="BackgroundImageFix" result="effect1_dropShadow_488_1110"/>
<feBlend mode="normal" in="SourceGraphic" in2="effect1_dropShadow_488_1110" result="shape"/>
<feColorMatrix in="SourceAlpha" type="matrix" values="0 0 0 0 0 0 0 0 0 0 0 0 0 0 0 0 0 0 127 0" result="hardAlpha"/>
<feOffset dx="1" dy="2"/>
<feGaussianBlur stdDeviation="1"/>
<feComposite in2="hardAlpha" operator="arithmetic" k2="-1" k3="1"/>
<feColorMatrix type="matrix" values="0 0 0 0 1 0 0 0 0 1 0 0 0 0 1 0 0 0 0.25 0"/>
<feBlend mode="normal" in2="shape" result="effect2_innerShadow_488_1110"/>
<feColorMatrix in="SourceAlpha" type="matrix" values="0 0 0 0 0 0 0 0 0 0 0 0 0 0 0 0 0 0 127 0" result="hardAlpha"/>
<feOffset dx="-1" dy="-2"/>
<feGaussianBlur stdDeviation="1"/>
<feComposite in2="hardAlpha" operator="arithmetic" k2="-1" k3="1"/>
<feColorMatrix type="matrix" values="0 0 0 0 0 0 0 0 0 0 0 0 0 0 0 0 0 0 0.1 0"/>
<feBlend mode="normal" in2="effect2_innerShadow_488_1110" result="effect3_innerShadow_488_1110"/>
</filter>
<linearGradient id="paint0_linear_488_1110" x1="66.0001" y1="9.99957" x2="66.0001" y2="40" gradientUnits="userSpaceOnUse">
<stop stop-color="#3AD0FF"/>
<stop offset="1" stop-color="#0075FF"/>
</linearGradient>
</defs>
</svg>
