<svg width="132" height="49" viewBox="0 0 132 49" fill="none" xmlns="http://www.w3.org/2000/svg">
<g filter="url(#filter0_dii_488_1112)">
<path fill-rule="evenodd" clip-rule="evenodd" d="M66.1017 40C42.7996 39.9098 21.8469 29.8571 7.28174 13.8799C12.6006 10.5106 22.7968 5.61346 30.418 9.00059C36.383 11.6516 39.4209 11.8477 44.4773 12.1741C45.7921 12.259 47.2433 12.3527 48.918 12.5007C54.0825 12.9569 57.7957 12.275 61.5835 11.5794C65.0689 10.9394 68.6174 10.2878 73.4179 10.5006C77.3885 10.6766 80.919 12.2028 84.6514 13.8164C88.0724 15.2952 91.6631 16.8475 95.9179 17.5007C101.06 18.2901 106.252 17.6353 110.959 17.0416C115.485 16.4708 119.563 15.9565 122.718 16.8365C108.688 30.7346 89.5405 39.4747 68.3533 39.9777C67.6033 39.9905 66.8526 39.998 66.1017 40Z" fill="url(#paint0_linear_488_1112)"/>
</g>
<defs>
<filter id="filter0_dii_488_1112" x="0.281738" y="0.857666" width="131.436" height="48.1423" filterUnits="userSpaceOnUse" color-interpolation-filters="sRGB">
<feFlood flood-opacity="0" result="BackgroundImageFix"/>
<feColorMatrix in="SourceAlpha" type="matrix" values="0 0 0 0 0 0 0 0 0 0 0 0 0 0 0 0 0 0 127 0" result="hardAlpha"/>
<feOffset dx="1" dy="1"/>
<feGaussianBlur stdDeviation="4"/>
<feComposite in2="hardAlpha" operator="out"/>
<feColorMatrix type="matrix" values="0 0 0 0 0 0 0 0 0 0 0 0 0 0 0 0 0 0 0.2 0"/>
<feBlend mode="normal" in2="BackgroundImageFix" result="effect1_dropShadow_488_1112"/>
<feBlend mode="normal" in="SourceGraphic" in2="effect1_dropShadow_488_1112" result="shape"/>
<feColorMatrix in="SourceAlpha" type="matrix" values="0 0 0 0 0 0 0 0 0 0 0 0 0 0 0 0 0 0 127 0" result="hardAlpha"/>
<feOffset dx="1" dy="2"/>
<feGaussianBlur stdDeviation="1"/>
<feComposite in2="hardAlpha" operator="arithmetic" k2="-1" k3="1"/>
<feColorMatrix type="matrix" values="0 0 0 0 1 0 0 0 0 1 0 0 0 0 1 0 0 0 0.25 0"/>
<feBlend mode="normal" in2="shape" result="effect2_innerShadow_488_1112"/>
<feColorMatrix in="SourceAlpha" type="matrix" values="0 0 0 0 0 0 0 0 0 0 0 0 0 0 0 0 0 0 127 0" result="hardAlpha"/>
<feOffset dx="-1" dy="-2"/>
<feGaussianBlur stdDeviation="1"/>
<feComposite in2="hardAlpha" operator="arithmetic" k2="-1" k3="1"/>
<feColorMatrix type="matrix" values="0 0 0 0 0 0 0 0 0 0 0 0 0 0 0 0 0 0 0.1 0"/>
<feBlend mode="normal" in2="effect2_innerShadow_488_1112" result="effect3_innerShadow_488_1112"/>
</filter>
<linearGradient id="paint0_linear_488_1112" x1="64.9999" y1="7.85767" x2="64.9999" y2="40" gradientUnits="userSpaceOnUse">
<stop stop-color="#3AD0FF"/>
<stop offset="1" stop-color="#0075FF"/>
</linearGradient>
</defs>
</svg>
